<svg width="15" height="15" viewBox="0 0 15 15" fill="none" xmlns="http://www.w3.org/2000/svg">
<path d="M3.12408 13.6471C2.61259 14.1586 1.78331 14.1586 1.27183 13.6471C0.760343 13.1356 0.760343 12.3063 1.27183 11.7948L5.9457 7.12095L1.27183 2.44708C0.760343 1.93559 0.760343 1.10631 1.27183 0.594827C1.78331 0.0833419 2.61259 0.0833415 3.12408 0.594826L7.79795 5.2687L12.4718 0.594826C12.9833 0.0833406 13.8126 0.0833413 14.3241 0.594826C14.8356 1.10631 14.8356 1.93559 14.3241 2.44708L9.6502 7.12095L14.3241 11.7948C14.8356 12.3063 14.8356 13.1356 14.3241 13.6471C13.8126 14.1586 12.9833 14.1586 12.4718 13.6471L7.79795 8.9732L3.12408 13.6471Z" fill="#B2B2B2"/>
</svg>
