<svg width="40" height="30" viewBox="0 0 40 30" fill="none" xmlns="http://www.w3.org/2000/svg">
<g clip-path="url(#clip0_189_16)">
<path d="M30.5015 27.0027H9.49933V10.5011H30.5015M26.001 0V3.0003H13.9998V0H10.9995V3.0003H9.49933C7.83416 3.0003 6.49902 4.33544 6.49902 6.00061V27.0027C6.49902 27.7985 6.81513 28.5616 7.37779 29.1243C7.94046 29.6869 8.7036 30.003 9.49933 30.003H30.5015C31.2972 30.003 32.0603 29.6869 32.623 29.1243C33.1857 28.5616 33.5018 27.7985 33.5018 27.0027V6.00061C33.5018 5.20488 33.1857 4.44174 32.623 3.87907C32.0603 3.31641 31.2972 3.0003 30.5015 3.0003H29.0013V0M27.5012 16.5017H20.0004V24.0024H27.5012V16.5017Z" fill="#AD4EFF"/>
</g>
<defs>
<clipPath id="clip0_189_16">
<rect width="40" height="30" fill="white"/>
</clipPath>
</defs>
</svg>
