<svg width="26" height="13" viewBox="0 0 26 13" fill="none" xmlns="http://www.w3.org/2000/svg">
<path d="M6.7498 12.3568C5.06647 12.3568 3.63314 11.7651 2.4498 10.5818C1.26647 9.39845 0.674805 7.96512 0.674805 6.28179C0.674805 4.59845 1.26647 3.16512 2.4498 1.98179C3.63314 0.798454 5.06647 0.206787 6.7498 0.206787C7.43314 0.206787 8.09147 0.32762 8.7248 0.569287C9.35814 0.810954 9.9248 1.15679 10.4248 1.60679L11.7998 2.80679L9.44981 4.93179L8.3248 3.95679C8.10814 3.77345 7.8623 3.62762 7.5873 3.51929C7.3123 3.41095 7.03314 3.35679 6.7498 3.35679C5.93314 3.35679 5.24147 3.64012 4.6748 4.20679C4.10814 4.77345 3.8248 5.46512 3.8248 6.28179C3.8248 7.09845 4.10814 7.79012 4.6748 8.35679C5.24147 8.92345 5.93314 9.20679 6.7498 9.20679C7.03314 9.20679 7.3123 9.15262 7.5873 9.04429C7.8623 8.93595 8.10814 8.79012 8.3248 8.60679L16.0748 1.60679C16.5748 1.15679 17.1415 0.810954 17.7748 0.569287C18.4081 0.32762 19.0665 0.206787 19.7498 0.206787C21.4331 0.206787 22.8665 0.798454 24.0498 1.98179C25.2331 3.16512 25.8248 4.59845 25.8248 6.28179C25.8248 7.96512 25.2331 9.39845 24.0498 10.5818C22.8665 11.7651 21.4331 12.3568 19.7498 12.3568C19.0665 12.3568 18.4081 12.236 17.7748 11.9943C17.1415 11.7526 16.5748 11.4068 16.0748 10.9568L14.6998 9.75679L17.0498 7.63179L18.1748 8.60679C18.3915 8.79012 18.6373 8.93595 18.9123 9.04429C19.1873 9.15262 19.4665 9.20679 19.7498 9.20679C20.5665 9.20679 21.2581 8.92345 21.8248 8.35679C22.3915 7.79012 22.6748 7.09845 22.6748 6.28179C22.6748 5.46512 22.3915 4.77345 21.8248 4.20679C21.2581 3.64012 20.5665 3.35679 19.7498 3.35679C19.4665 3.35679 19.1873 3.41095 18.9123 3.51929C18.6373 3.62762 18.3915 3.77345 18.1748 3.95679L10.4248 10.9568C9.9248 11.4068 9.35814 11.7526 8.7248 11.9943C8.09147 12.236 7.43314 12.3568 6.7498 12.3568Z" fill="#945CE2"/>
</svg>
