<svg width="15" height="23" viewBox="0 0 15 23" fill="none" xmlns="http://www.w3.org/2000/svg">
<path d="M8.64767 22.419C8.00326 23.026 6.9975 23.026 6.35309 22.419L0.819156 17.2058C0.297546 16.7144 0.297546 15.8852 0.819156 15.3938C1.29853 14.9423 2.04672 14.9423 2.52609 15.3938L7.50038 20.0798L12.4747 15.3938C12.954 14.9423 13.7022 14.9423 14.1816 15.3938C14.7032 15.8852 14.7032 16.7144 14.1816 17.2058L8.64767 22.419ZM2.54311 7.58989C2.06983 8.03572 1.33314 8.04217 0.852145 7.60468C0.315638 7.1167 0.308278 6.2752 0.836167 5.77792L6.37008 0.564779C7.00495 -0.0332846 7.99582 -0.0332844 8.63068 0.56478L14.1646 5.77792C14.6925 6.27521 14.6851 7.1167 14.1486 7.60468C13.6676 8.04217 12.9309 8.03572 12.4577 7.58989L7.50038 2.91997L2.54311 7.58989Z" fill="#F5F5F5"/>
</svg>
