<svg width="15" height="24" viewBox="0 0 15 24" fill="none" xmlns="http://www.w3.org/2000/svg">
<path d="M8.89767 22.669C8.25326 23.276 7.2475 23.276 6.60309 22.669L1.06916 17.4558C0.547546 16.9644 0.547546 16.1352 1.06916 15.6438C1.54853 15.1923 2.29672 15.1923 2.77609 15.6438L7.75038 20.3298L12.7247 15.6438C13.204 15.1923 13.9522 15.1923 14.4316 15.6438C14.9532 16.1352 14.9532 16.9644 14.4316 17.4558L8.89767 22.669ZM2.79311 7.83989C2.31983 8.28572 1.58314 8.29217 1.10215 7.85468C0.565638 7.3667 0.558278 6.5252 1.08617 6.02792L6.62008 0.814779C7.25495 0.216715 8.24582 0.216716 8.88068 0.81478L14.4146 6.02792C14.9425 6.52521 14.9351 7.3667 14.3986 7.85468C13.9176 8.29217 13.1809 8.28572 12.7077 7.83989L7.75038 3.16997L2.79311 7.83989Z" fill="#1B1C1D"/>
</svg>
