<svg width="41" height="32" viewBox="0 0 41 32" fill="none" xmlns="http://www.w3.org/2000/svg">
<path d="M0.244141 25.5469C0.244141 24.6234 0.79758 23.7918 1.66546 23.4763C3.70253 22.7358 7.52073 21.5034 10.3717 21.5034C14.4472 21.5034 20.4993 24.0218 20.4993 24.0218C20.4993 24.0218 26.5513 26.5401 30.6268 26.5401C32.7707 26.5401 35.4616 25.8432 37.5307 25.1826C39.0846 24.6865 40.7544 25.8186 40.7544 27.4497C40.7544 28.3732 40.201 29.2048 39.3331 29.5203C37.296 30.2608 33.4778 31.4932 30.6268 31.4932C26.5513 31.4932 20.4993 28.9748 20.4993 28.9748C20.4993 28.9748 14.4472 26.4565 10.3717 26.4565C8.22779 26.4565 5.53691 27.1534 3.4678 27.814C1.91395 28.3101 0.244141 27.178 0.244141 25.5469Z" fill="#5CE2C7"/>
<path d="M0.244141 15.0497C0.244141 14.1262 0.79758 13.2946 1.66546 12.9791C3.70253 12.2386 7.52073 11.0062 10.3717 11.0062C14.4472 11.0062 20.4993 13.5246 20.4993 13.5246C20.4993 13.5246 26.5513 16.0429 30.6268 16.0429C32.7707 16.0429 35.4616 15.346 37.5307 14.6854C39.0846 14.1893 40.7544 15.3214 40.7544 16.9525C40.7544 17.876 40.201 18.7076 39.3331 19.0231C37.296 19.7636 33.4778 20.996 30.6268 20.996C26.5513 20.996 20.4993 18.4776 20.4993 18.4776C20.4993 18.4776 14.4472 15.9593 10.3717 15.9593C8.22779 15.9593 5.53691 16.6562 3.4678 17.3168C1.91395 17.8129 0.244141 16.6808 0.244141 15.0497Z" fill="#5CE2C7"/>
<path d="M0.244141 4.55248C0.244141 3.62903 0.79758 2.79746 1.66546 2.48195C3.70253 1.74139 7.52073 0.509033 10.3717 0.509033C14.4472 0.509033 20.4993 3.02738 20.4993 3.02738C20.4993 3.02738 26.5513 5.54572 30.6268 5.54572C32.7707 5.54572 35.4616 4.84883 37.5307 4.18824C39.0846 3.69215 40.7544 4.82423 40.7544 6.45535C40.7544 7.3788 40.201 8.21037 39.3331 8.52588C37.296 9.26644 33.4778 10.4988 30.6268 10.4988C26.5513 10.4988 20.4993 7.98045 20.4993 7.98045C20.4993 7.98045 14.4472 5.46211 10.3717 5.46211C8.22779 5.46211 5.53691 6.159 3.4678 6.81959C1.91395 7.31568 0.244141 6.1836 0.244141 4.55248Z" fill="#5CE2C7"/>
</svg>
