<svg width="40" height="24" viewBox="0 0 40 24" fill="none" xmlns="http://www.w3.org/2000/svg">
<path d="M4.77021 23.1506C3.7232 23.1506 2.82689 22.7778 2.08129 22.0322C1.33569 21.2866 0.962891 20.3903 0.962891 19.3433V4.11396C0.962891 3.06695 1.33569 2.17064 2.08129 1.42504C2.82689 0.679441 3.7232 0.306641 4.77021 0.306641H35.2288C36.2758 0.306641 37.1721 0.679441 37.9177 1.42504C38.6633 2.17064 39.0361 3.06695 39.0361 4.11396V19.3433C39.0361 20.3903 38.6633 21.2866 37.9177 22.0322C37.1721 22.7778 36.2758 23.1506 35.2288 23.1506H4.77021ZM4.77021 19.3433H35.2288V4.11396H29.5178V11.7286H25.7105V4.11396H21.9032V11.7286H18.0958V4.11396H14.2885V11.7286H10.4812V4.11396H4.77021V19.3433Z" fill="#5CE2C7"/>
</svg>
