<svg width="29" height="39" viewBox="0 0 29 39" fill="none" xmlns="http://www.w3.org/2000/svg">
<path d="M4.08602 38.0555C3.10846 38.0555 2.27161 37.7075 1.57546 37.0113C0.879321 36.3152 0.53125 35.4783 0.53125 34.5008V16.7269C0.53125 15.7494 0.879321 14.9125 1.57546 14.2164C2.27161 13.5202 3.10846 13.1722 4.08602 13.1722H5.8634V9.61739C5.8634 7.15868 6.72988 5.06284 8.46283 3.32989C10.1958 1.59694 12.2916 0.730469 14.7503 0.730469C17.209 0.730469 19.3049 1.59694 21.0378 3.32989C22.7708 5.06284 23.6372 7.15868 23.6372 9.61739V13.1722H25.4146C26.3922 13.1722 27.229 13.5202 27.9252 14.2164C28.6213 14.9125 28.9694 15.7494 28.9694 16.7269V34.5008C28.9694 35.4783 28.6213 36.3152 27.9252 37.0113C27.229 37.7075 26.3922 38.0555 25.4146 38.0555H4.08602ZM4.08602 34.5008H25.4146V16.7269H4.08602V34.5008ZM14.7503 29.1686C15.7279 29.1686 16.5647 28.8205 17.2609 28.1244C17.957 27.4283 18.3051 26.5914 18.3051 25.6138C18.3051 24.6363 17.957 23.7994 17.2609 23.1033C16.5647 22.4072 15.7279 22.0591 14.7503 22.0591C13.7728 22.0591 12.9359 22.4072 12.2398 23.1033C11.5436 23.7994 11.1956 24.6363 11.1956 25.6138C11.1956 26.5914 11.5436 27.4283 12.2398 28.1244C12.9359 28.8205 13.7728 29.1686 14.7503 29.1686ZM9.41817 13.1722H20.0825V9.61739C20.0825 8.13624 19.5641 6.87726 18.5273 5.84045C17.4905 4.80364 16.2315 4.28524 14.7503 4.28524C13.2692 4.28524 12.0102 4.80364 10.9734 5.84045C9.93658 6.87726 9.41817 8.13624 9.41817 9.61739V13.1722Z" fill="white"/>
</svg>
