<svg width="21" height="20" viewBox="0 0 21 20" fill="none" xmlns="http://www.w3.org/2000/svg">
<path d="M2.16667 11.6667C1.24619 11.6667 0.5 10.9205 0.5 10C0.5 9.07952 1.24619 8.33333 2.16667 8.33333H18.8333C19.7538 8.33333 20.5 9.07952 20.5 10C20.5 10.9205 19.7538 11.6667 18.8333 11.6667H2.16667Z" fill="#1B1C1D"/>
<path d="M8.97565 16.6667C8.05517 16.6667 7.30898 17.4129 7.30898 18.3333C7.30898 19.2538 8.05518 20 8.97565 20H18.8333C19.7538 20 20.5 19.2538 20.5 18.3333C20.5 17.4129 19.7538 16.6667 18.8333 16.6667H8.97565Z" fill="#1B1C1D"/>
<path d="M8.97565 0C8.05517 0 7.30898 0.746192 7.30898 1.66667C7.30898 2.58714 8.05518 3.33333 8.97565 3.33333H18.8333C19.7538 3.33333 20.5 2.58714 20.5 1.66667C20.5 0.746192 19.7538 0 18.8333 0L8.97565 0Z" fill="#1B1C1D"/>
</svg>
