<svg width="14" height="14" viewBox="0 0 14 14" fill="none" xmlns="http://www.w3.org/2000/svg">
<path d="M2.19172 8.34171H5.51721V11.3118C5.51721 12.0876 6.1461 12.7165 6.92187 12.7165C7.69765 12.7165 8.32654 12.0876 8.32654 11.3118V8.34171H11.652C12.393 8.34171 12.9937 7.741 12.9937 6.99999C12.9937 6.25897 12.393 5.65826 11.652 5.65826H8.32654V2.68814C8.32654 1.91236 7.69765 1.28347 6.92187 1.28347C6.1461 1.28347 5.51721 1.91236 5.51721 2.68814V5.65826H2.19172C1.45071 5.65826 0.85 6.25897 0.85 6.99999C0.85 7.741 1.45071 8.34171 2.19172 8.34171Z" fill="#5CE2C7" stroke="#5CE2C7" stroke-width="0.8"/>
</svg>
