<svg width="34" height="40" viewBox="0 0 34 40" fill="none" xmlns="http://www.w3.org/2000/svg">
<path d="M4.50065 23.1667C4.50065 24.9722 4.86523 26.6823 5.5944 28.2969C6.32357 29.9115 7.36523 31.3264 8.7194 32.5417C8.68468 32.3681 8.66732 32.2118 8.66732 32.0729V31.6042C8.66732 30.4931 8.87565 29.4514 9.29232 28.4792C9.70898 27.5069 10.3166 26.6215 11.1152 25.8229L17.0007 20.0417L22.8861 25.8229C23.6847 26.6215 24.2923 27.5069 24.709 28.4792C25.1257 29.4514 25.334 30.4931 25.334 31.6042V32.0729C25.334 32.2118 25.3166 32.3681 25.2819 32.5417C26.6361 31.3264 27.6777 29.9115 28.4069 28.2969C29.1361 26.6823 29.5007 24.9722 29.5007 23.1667C29.5007 21.4306 29.1795 19.7899 28.5371 18.2448C27.8947 16.6997 26.9659 15.3194 25.7507 14.1042C25.0562 14.5556 24.327 14.8941 23.5632 15.1198C22.7993 15.3455 22.018 15.4583 21.2194 15.4583C19.0666 15.4583 17.2003 14.7465 15.6204 13.3229C14.0406 11.8993 13.1291 10.1458 12.8861 8.0625C11.5319 9.20833 10.334 10.3976 9.29232 11.6302C8.25065 12.8628 7.37392 14.1128 6.66211 15.3802C5.9503 16.6476 5.41211 17.941 5.04753 19.2604C4.68294 20.5799 4.50065 21.8819 4.50065 23.1667ZM17.0007 25.875L14.0319 28.7917C13.65 29.1736 13.3548 29.6076 13.1465 30.0937C12.9382 30.5799 12.834 31.0833 12.834 31.6042C12.834 32.7153 13.242 33.6701 14.0579 34.4688C14.8739 35.2674 15.8548 35.6667 17.0007 35.6667C18.1465 35.6667 19.1274 35.2674 19.9434 34.4688C20.7593 33.6701 21.1673 32.7153 21.1673 31.6042C21.1673 31.0486 21.0632 30.5365 20.8548 30.0677C20.6465 29.599 20.3513 29.1736 19.9694 28.7917L17.0007 25.875ZM17.0007 0.25V7.125C17.0007 8.30556 17.4086 9.29514 18.2246 10.0937C19.0406 10.8924 20.0388 11.2917 21.2194 11.2917C21.8444 11.2917 22.426 11.1615 22.9642 10.901C23.5024 10.6406 23.9798 10.25 24.3965 9.72917L25.334 8.58333C27.9034 10.0417 29.9347 12.0729 31.4277 14.6771C32.9208 17.2812 33.6673 20.1111 33.6673 23.1667C33.6673 27.8194 32.0527 31.7604 28.8236 34.9896C25.5944 38.2188 21.6534 39.8333 17.0007 39.8333C12.3479 39.8333 8.4069 38.2188 5.17773 34.9896C1.94857 31.7604 0.333984 27.8194 0.333984 23.1667C0.333984 18.6875 1.83572 14.434 4.83919 10.4062C7.84267 6.37847 11.8965 2.99306 17.0007 0.25Z" fill="#5CE2C7"/>
</svg>
