<svg width="47" height="34" viewBox="0 0 47 34" fill="none" xmlns="http://www.w3.org/2000/svg">
<path d="M29.9997 33.6667C25.3469 33.6667 21.4059 32.0521 18.1768 28.823C14.9476 25.5938 13.333 21.6528 13.333 17C13.333 12.382 14.9476 8.44969 18.1768 5.20317C21.4059 1.95664 25.3469 0.333374 29.9997 0.333374C34.6177 0.333374 38.55 1.95664 41.7965 5.20317C45.0431 8.44969 46.6663 12.382 46.6663 17C46.6663 21.6528 45.0431 25.5938 41.7965 28.823C38.55 32.0521 34.6177 33.6667 29.9997 33.6667ZM29.9997 29.5C33.4719 29.5 36.4233 28.2848 38.8538 25.8542C41.2844 23.4237 42.4997 20.4723 42.4997 17C42.4997 13.5278 41.2844 10.5764 38.8538 8.14587C36.4233 5.71532 33.4719 4.50004 29.9997 4.50004C26.5275 4.50004 23.5761 5.71532 21.1455 8.14587C18.715 10.5764 17.4997 13.5278 17.4997 17C17.4997 20.4723 18.715 23.4237 21.1455 25.8542C23.5761 28.2848 26.5275 29.5 29.9997 29.5ZM33.2577 23.2676C34.075 24.0912 35.406 24.0937 36.2265 23.2733C37.0447 22.455 37.0447 21.1284 36.2265 20.3102L32.083 16.1667V10.75C32.083 9.59945 31.1503 8.66671 29.9997 8.66671C28.8491 8.66671 27.9163 9.59945 27.9163 10.75V17.8855L33.2577 23.2676ZM4.99967 10.75C3.84908 10.75 2.91634 9.8173 2.91634 8.66671C2.91634 7.51611 3.84908 6.58337 4.99967 6.58337H9.16634C10.3169 6.58337 11.2497 7.51611 11.2497 8.66671C11.2497 9.8173 10.3169 10.75 9.16634 10.75H4.99967ZM2.91634 19.0834C1.76575 19.0834 0.833008 18.1506 0.833008 17C0.833008 15.8494 1.76575 14.9167 2.91634 14.9167H9.16634C10.3169 14.9167 11.2497 15.8494 11.2497 17C11.2497 18.1506 10.3169 19.0834 9.16634 19.0834H2.91634ZM4.99967 27.4167C3.84908 27.4167 2.91634 26.484 2.91634 25.3334C2.91634 24.1828 3.84908 23.25 4.99967 23.25H9.16634C10.3169 23.25 11.2497 24.1828 11.2497 25.3334C11.2497 26.484 10.3169 27.4167 9.16634 27.4167H4.99967Z" fill="#5CE2C7"/>
</svg>
