<svg width="48" height="48" viewBox="0 0 48 48" fill="none" xmlns="http://www.w3.org/2000/svg">
<path d="M11.7716 40.7251C14.322 43.8528 16.0974 45.3129 19.4945 46.7703C19.6262 46.8268 19.5685 47.0402 19.4266 47.0205C15.9355 46.5368 13.801 46.3137 10.8756 43.5711C7.18759 42.891 4.95076 42.9872 1.99707 41.2585C2.11689 39.0495 2.44955 37.8437 3.33794 35.7598C6.1077 38.1178 7.85713 39.2917 11.7716 40.7251Z" fill="#E35DB6"/>
<path d="M14.5291 35.0013C15.9517 38.778 17.1701 40.7272 19.9268 43.1898C20.0337 43.2853 19.9111 43.4692 19.7829 43.4054C16.6271 41.8359 14.6746 40.9451 12.774 37.4142C9.49416 35.5959 7.343 34.9753 5.09295 32.3965C6.03739 30.181 6.644 29.168 8.11394 27.6103C9.98934 30.7271 11.2743 32.3967 14.5291 35.0013Z" fill="#E35DB6"/>
<path d="M19.0133 29.8816C19.1089 33.5545 19.5785 35.675 21.2147 38.8042C21.282 38.9329 21.0954 39.063 20.9992 38.9542C18.7251 36.3812 17.2908 34.8093 16.6992 31.1332C14.3379 28.2392 12.7017 26.9792 11.4949 23.8928C12.7245 22.4638 13.5734 21.8641 15.4822 20.5654C16.1878 23.938 16.9184 26.348 19.0133 29.8816Z" fill="#E35DB6"/>
<path d="M24.5714 28.0123C23.7316 31.8319 23.4294 32.7008 24.2966 36.0102C24.3332 36.1499 24.1393 36.2276 24.0739 36.0989C22.5673 33.1354 22.5789 32.0342 22.9031 28.1163C21.194 24.6853 20.096 21.6541 19.6314 18.2459C20.9154 17.5091 21.6187 18.011 22.9976 17.6332C22.2955 21.3838 22.9031 23.575 24.5714 28.0123Z" fill="#E35DB6"/>
<path d="M42.5151 34.4587C42.3478 34.1441 41.7511 33.0887 41.5695 32.7531C41.0849 32.1384 40.8228 31.5896 40.3574 30.972C39.8535 30.3033 39.8764 30.1007 39.5593 29.5763C39.4049 29.339 39.1911 29.0095 38.93 28.5888L32.406 18.4811C31.6627 17.8155 31.2677 17.7832 30.297 17.7797C30.297 17.7797 29.6977 18.4584 28.4613 17.2121C28.334 17.7626 28.068 18.3167 27.6667 18.7225C27.4708 19.0176 27.2325 19.2884 26.9796 19.5317C26.885 19.6216 26.7887 19.7116 26.688 19.7975C25.7359 20.9195 24.6046 22.3277 24.6547 22.7488C24.7167 23.2779 30.565 18.8416 31.395 19.9912L36.1824 27.3396L29.2283 27.3507C25.833 27.5673 26.1909 32.2857 26.8145 34.1634C26.8269 34.2008 26.8567 34.2277 26.8946 34.2385L29.5517 34.9945C29.6376 35.0189 29.7192 34.9446 29.7037 34.8567C29.235 32.2026 29.0754 30.055 30.0522 29.0889C30.671 28.4773 33.8086 28.6928 35.6721 28.7835C35.712 28.7964 35.7523 28.8079 35.7924 28.8177C35.9944 28.8693 36.9505 28.7179 36.9309 29.1748C36.9151 29.5483 36.715 29.8638 36.0694 29.8784L32.6591 30.2134C30.8364 30.2605 31.0948 33.2024 31.3675 35.2565C31.3795 35.3474 31.4423 35.4229 31.5291 35.4522L32.964 35.9363C33.0465 35.9642 33.1306 35.8984 33.1231 35.8117C33.0804 35.3156 32.9636 33.9104 32.9092 32.7825C32.8452 31.4756 33.8485 31.3435 35.7598 31.4296C36.3383 31.4565 37.3243 31.5751 37.8061 31.4996C39.7887 31.3339 39.4202 32.7077 37.6068 32.7701C37.4241 32.7748 36.5214 32.8401 36.3044 32.843C34.0875 32.8754 34.5656 34.8417 34.8634 36.1337C34.9634 36.5635 35.1661 36.8922 35.3577 37.0701C35.3647 37.0774 35.3713 37.0841 35.3802 37.0902C35.3838 37.0935 35.3871 37.0958 35.3906 37.0992L37.8535 38.4041C38.0711 38.5302 38.3727 38.5873 38.8053 38.5827C40.204 38.5674 41.2118 37.9977 41.8611 37.4403C42.7757 36.6569 43.3191 35.9691 42.5151 34.4587Z" fill="#E35DB6"/>
<path d="M32.0122 26.2916C32.8093 26.3101 33.4659 25.8885 33.4845 25.0908C33.5031 24.2932 32.8669 23.8201 32.0693 23.8015C31.2722 23.783 30.6148 24.2269 30.5961 25.0245C30.577 25.822 31.2144 26.2735 32.0122 26.2916Z" fill="#E35DB6"/>
<path d="M32.7027 18.9017C32.262 18.9017 31.9042 18.544 31.9042 18.1032V16.0072C31.9042 12.2647 28.8596 9.22003 25.1171 9.22003C21.3745 9.22003 18.3299 12.2647 18.3299 16.0072V18.1032C18.3299 18.544 17.9722 18.9017 17.5314 18.9017C17.0906 18.9017 16.7329 18.544 16.7329 18.1032V16.0072C16.7329 11.3843 20.4938 7.62305 25.1171 7.62305C29.7403 7.62305 33.5012 11.3843 33.5012 16.0072V18.1032C33.5012 18.5444 33.1435 18.9017 32.7027 18.9017Z" fill="#E35DB6"/>
<path d="M21.3625 18.8997C20.9217 18.8997 20.564 18.542 20.564 18.1012C20.564 14.9332 20.564 10.1454 24.9137 8.04901C25.3118 7.85777 25.7881 8.02426 25.9797 8.4219C26.1714 8.81955 26.0045 9.29625 25.6068 9.48789C22.4244 11.0218 22.1609 14.4373 22.1609 18.1012C22.1609 18.5424 21.8032 18.8997 21.3625 18.8997Z" fill="#E35DB6"/>
<path d="M28.4992 18.8994C28.0585 18.8994 27.7007 18.5417 27.7007 18.1009C27.7007 14.437 27.4372 11.0215 24.2548 9.48758C23.8576 9.29634 23.6907 8.81884 23.882 8.42159C24.0736 8.02474 24.5511 7.85786 24.9479 8.0487C29.2977 10.1451 29.2977 14.9329 29.2977 18.1009C29.2977 18.5421 28.9404 18.8994 28.4992 18.8994Z" fill="#E35DB6"/>
<path d="M33.0295 19.1006H17.5519C17.1111 19.1006 16.7534 18.7429 16.7534 18.3021C16.7534 17.8614 17.1111 17.5036 17.5519 17.5036H32.954L37.0423 16.7195C37.4763 16.6365 37.8939 16.9203 37.9769 17.3531C38.06 17.7863 37.7761 18.2047 37.3433 18.2877L33.1804 19.0862C33.1305 19.0958 33.0802 19.1006 33.0295 19.1006Z" fill="#E35DB6"/>
<path d="M25.1189 9.21948C24.6821 9.21948 24.3256 8.86774 24.3204 8.42977L24.2681 3.72427C24.2633 3.2835 24.6167 2.92178 25.0578 2.91699C25.0606 2.91699 25.0638 2.91699 25.0666 2.91699C25.5034 2.91699 25.8599 3.26873 25.8651 3.7067L25.9174 8.41221C25.9222 8.85297 25.5689 9.21469 25.1277 9.21948C25.1249 9.21948 25.1217 9.21948 25.1189 9.21948Z" fill="#E35DB6"/>
<path d="M30.0166 0.833007C27.6702 0.833007 26.6072 1.5968 26.6072 2.53779C26.6072 3.48 29.3678 2.53779 31.7229 2.53779C34.0766 2.53779 35.1323 3.48 35.1323 2.53779C35.1323 1.5968 32.3717 0.833008 30.0166 0.833007Z" fill="#E35DB6"/>
<path d="M19.9914 4.65967C22.3378 4.65967 23.4009 3.89588 23.4009 2.95489C23.4009 2.01268 20.6402 2.95489 18.2852 2.95489C15.9315 2.95489 14.8757 2.0139 14.8757 2.95489C14.8757 3.8971 17.6364 4.65967 19.9914 4.65967Z" fill="#E35DB6"/>
<path d="M24.9646 0.982453C24.3316 0.982453 23.7621 1.36375 23.5189 1.94788C23.2769 2.53203 23.4113 3.20538 23.8586 3.65266C24.3059 4.09994 24.9792 4.23437 25.5634 3.99238C26.1475 3.74919 26.5288 3.17969 26.5288 2.54667C26.5288 1.68267 25.8286 0.982453 24.9646 0.982453Z" fill="#E35DB6"/>
</svg>
