<svg width="46" height="57" viewBox="0 0 46 57" fill="none" xmlns="http://www.w3.org/2000/svg">
<path d="M9.51321 39.0387C11.9574 42.0361 13.6588 43.4354 16.9144 44.832C17.0405 44.8862 16.9853 45.0907 16.8493 45.0718C13.5037 44.6083 11.4581 44.3945 8.65459 41.7662C5.12024 41.1144 2.97662 41.2066 0.145996 39.5499C0.260821 37.4329 0.579627 36.2773 1.431 34.2803C4.08535 36.5401 5.76189 37.665 9.51321 39.0387Z" fill="#7465FF"/>
<path d="M12.1561 33.5544C13.5194 37.1738 14.6871 39.0418 17.3289 41.4018C17.4313 41.4933 17.3139 41.6696 17.191 41.6084C14.1667 40.1043 12.2955 39.2507 10.4742 35.8669C7.33095 34.1243 5.26942 33.5295 3.11312 31.0582C4.01822 28.935 4.59955 27.9642 6.00824 26.4714C7.8055 29.4584 9.03689 31.0584 12.1561 33.5544Z" fill="#7465FF"/>
<path d="M16.4531 28.647C16.5447 32.1668 16.9947 34.199 18.5628 37.1978C18.6273 37.3211 18.4484 37.4458 18.3563 37.3415C16.1769 34.8757 14.8023 33.3694 14.2354 29.8464C11.9725 27.073 10.4045 25.8655 9.24802 22.9077C10.4263 21.5382 11.2399 20.9635 13.0692 19.7189C13.7454 22.951 14.4455 25.2606 16.4531 28.647Z" fill="#7465FF"/>
<path d="M21.7797 26.8574C20.9749 30.5178 20.6853 31.3505 21.5163 34.522C21.5514 34.6558 21.3656 34.7303 21.3029 34.607C19.8591 31.767 19.8702 30.7117 20.1808 26.9571C18.543 23.669 17.4907 20.7641 17.0455 17.4979C18.276 16.7918 18.9935 16.4998 20.3149 16.1378C19.6422 19.7321 20.1808 22.605 21.7797 26.8574Z" fill="#7465FF"/>
<path d="M38.9756 33.034C38.8153 32.7325 38.2434 31.7211 38.0694 31.3994C37.6049 30.8104 37.3538 30.2845 36.9078 29.6926C36.4249 29.0517 36.4468 28.8576 36.1429 28.355C35.995 28.1276 35.7901 27.8119 35.5398 27.4087L29.2876 17.7221C28.5753 17.0842 28.1006 17.0533 27.1704 17.0499C27.1903 17.0499 27.7586 17.0327 27.0564 15.0258C26.6948 14.0049 25.5468 12.5781 24.3619 11.3837C20.4332 15.5729 23.2942 18.9136 23.5059 17.9862L24.5663 14.0254C25.3526 14.4915 25.7079 15.645 25.5079 16.5058C25.3859 17.0333 25.1304 17.5646 24.7458 17.9535C24.5581 18.2362 24.3297 18.4958 24.0874 18.729C23.9967 18.8151 23.9044 18.9014 23.8079 18.9837C22.8954 20.059 21.8113 21.4085 21.8593 21.812C21.9188 22.319 27.5234 18.0676 28.3188 19.1693L32.9067 26.2115L26.2424 26.2222C22.9886 26.4297 23.3316 30.9516 23.9292 32.751C23.941 32.7868 23.9696 32.8126 24.0059 32.823L26.5523 33.5475C26.6346 33.5709 26.7128 33.4997 26.698 33.4155C26.2488 30.8719 26.0959 28.8138 27.0319 27.888C27.625 27.3018 30.6318 27.5083 32.4176 27.5952C32.4559 27.6077 32.4945 27.6186 32.533 27.6281C32.7266 27.6775 33.6428 27.5324 33.624 27.9703C33.6089 28.3282 33.4172 28.6305 32.7984 28.6446L29.5302 28.9656C27.7834 29.0107 28.0311 31.8301 28.2924 33.7986C28.304 33.8857 28.3641 33.958 28.4473 33.9861L29.8224 34.45C29.9015 34.4767 29.9821 34.4137 29.9749 34.3306C29.934 33.8552 29.8221 32.5085 29.7699 31.4276C29.7086 30.1752 30.6701 30.0486 32.5018 30.1311C33.0561 30.1569 34.0011 30.2705 34.4627 30.1982C36.3628 30.0394 36.0096 31.3559 34.2718 31.4158C34.0967 31.4202 33.2316 31.4828 33.0237 31.4856C30.8991 31.5167 31.3573 33.4011 31.6427 34.6392C31.7385 35.051 31.9328 35.3661 32.1164 35.5366C32.1231 35.5436 32.1295 35.55 32.138 35.5558C32.1414 35.5591 32.1445 35.5612 32.1479 35.5645L34.5081 36.815C34.7167 36.9359 35.0058 36.9906 35.4203 36.9862C36.7607 36.9715 37.7265 36.4255 38.3488 35.8913C39.2253 35.1406 39.7461 34.4814 38.9756 33.034Z" fill="#7465FF"/>
<path d="M28.9103 25.2066C29.6742 25.2244 30.3035 24.8203 30.3213 24.0559C30.3392 23.2915 29.7295 22.8381 28.9651 22.8203C28.2012 22.8025 27.5712 23.2279 27.5533 23.9923C27.535 24.7566 28.1458 25.1893 28.9103 25.2066Z" fill="#7465FF"/>
<path d="M19.4131 22.0961H20.434V23.117H21.4549V24.1379H22.4758V25.1587H23.4966V26.1796H24.5175H25.5384H26.5593H27.5802H28.6011H29.622V25.1587H30.6429V24.1379H31.6637V23.117H32.6846V22.0961H32.9909V21.0752H32.6846H31.6637H30.6429H29.622H26.5593H25.5384H24.5175H23.4966H22.4758H21.4549H20.434H19.4131V22.0961ZM22.4758 23.117V22.0961H23.4966V23.117H22.4758ZM24.5175 24.1379H23.4966V23.117H24.5175V24.1379ZM24.5175 24.1379H25.5384V25.1587H24.5175V24.1379Z" fill="#7465FF"/>
<path d="M32.2764 22.0961H33.2973V23.117H34.3181V24.1379H35.339V25.1587H36.3599V26.1796H37.3808H38.4017H39.4226H40.4435H41.4644H42.4853V25.1587H43.5061V24.1379H44.527V23.117H45.5479V22.0961H45.8542V21.0752H45.5479H44.527H43.5061H42.4853H39.4226H38.4017H37.3808H36.3599H35.339H34.3181H33.2973H32.2764V22.0961ZM35.339 23.117V22.0961H36.3599V23.117H35.339ZM37.3808 24.1379H36.3599V23.117H37.3808V24.1379ZM37.3808 24.1379H38.4017V25.1587H37.3808V24.1379Z" fill="#7465FF"/>
</svg>
