<svg width="27" height="40" viewBox="0 0 27 40" fill="none" xmlns="http://www.w3.org/2000/svg">
<path d="M14.4301 18.5386C13.049 19.1291 11.4817 19.7986 9.45042 19.7986C8.60066 19.7969 7.75506 19.6805 6.93652 19.4525L8.34143 33.858C8.39114 34.4599 8.6658 35.0215 9.1108 35.4305C9.5558 35.8399 10.1386 36.067 10.7436 36.0666C10.7436 36.0666 12.7355 36.1701 13.4002 36.1701C14.1156 36.1701 16.2607 36.0666 16.2607 36.0666C16.8655 36.0666 17.4482 35.8395 17.8931 35.4305C18.338 35.0211 18.6126 34.4599 18.6623 33.858L20.167 17.9394C19.4946 17.71 18.816 17.5576 18.0509 17.5576C16.7278 17.5571 15.6617 18.0122 14.4301 18.5386Z" fill="#5CE2C7"/>
<path d="M26.666 11.0635L26.4547 9.99779C26.2647 9.04155 25.8339 8.13803 24.8511 7.79242C24.5362 7.68187 24.1785 7.63434 23.937 7.40551C23.6955 7.17665 23.624 6.82124 23.5683 6.49163C23.465 5.88669 23.3676 5.28124 23.2616 4.67736C23.1701 4.15818 23.0975 3.57493 22.8591 3.09865C22.5489 2.45908 21.905 2.08508 21.2645 1.83763C20.9363 1.71528 20.6013 1.61179 20.2615 1.52767C18.6616 1.1061 16.9794 0.951124 15.3335 0.86281C13.3579 0.753947 11.3771 0.786731 9.4062 0.960966C7.93925 1.09422 6.39421 1.25544 5.00019 1.76218C4.49067 1.94767 3.96569 2.1703 3.57825 2.56344C3.10289 3.04646 2.94771 3.79348 3.29479 4.39579C3.54153 4.82356 3.95948 5.12575 4.40276 5.32567C4.98016 5.58328 5.58317 5.77928 6.20177 5.91046C7.92425 6.29069 9.70831 6.43999 11.468 6.50352C13.4184 6.58214 15.372 6.51842 17.313 6.31289C17.7931 6.26022 18.2722 6.19701 18.7505 6.12332C19.3138 6.03704 19.6754 5.3014 19.5093 4.78893C19.3107 4.17626 18.7769 3.93861 18.1732 4.03108C18.0843 4.04505 17.9958 4.05795 17.9069 4.07089L17.8427 4.08018C17.6382 4.10599 17.4337 4.1301 17.2292 4.1525C16.8068 4.19795 16.3834 4.23516 15.9589 4.26406C15.0082 4.33018 14.0548 4.36069 13.102 4.36222C12.1658 4.36222 11.229 4.33587 10.2949 4.27442C9.86863 4.2465 9.44346 4.21105 9.01931 4.16799C8.82635 4.14783 8.63395 4.12665 8.44151 4.10289L8.25841 4.07963L8.21859 4.07399L8.02874 4.04657C7.64079 3.98822 7.25284 3.92105 6.86906 3.83995C6.83034 3.83136 6.79567 3.80987 6.77085 3.77897C6.74604 3.74806 6.73249 3.70959 6.73249 3.66999C6.73249 3.63038 6.74604 3.59195 6.77085 3.56105C6.79567 3.53014 6.83034 3.50861 6.86906 3.50003H6.87628C7.20891 3.42924 7.54408 3.36881 7.88028 3.3161C7.99238 3.29857 8.1048 3.28132 8.21753 3.26446H8.22063C8.43118 3.2505 8.64274 3.21281 8.85223 3.18799C10.6749 2.99865 12.5084 2.9341 14.3399 2.99481C15.229 3.02061 16.1177 3.07281 17.0027 3.16269C17.193 3.18234 17.3824 3.20301 17.5717 3.22622C17.6441 3.23501 17.7171 3.24536 17.79 3.25414L17.9369 3.27532C18.3652 3.33901 18.7912 3.41634 19.215 3.50728C19.843 3.64363 20.6492 3.68807 20.9288 4.37516C21.0176 4.59316 21.058 4.83544 21.1071 5.0643L21.1699 5.35614C21.1715 5.3614 21.1727 5.36677 21.1734 5.37218C21.3215 6.06097 21.4695 6.74975 21.6175 7.43857C21.6285 7.48944 21.6289 7.54202 21.6183 7.593C21.6081 7.64399 21.5873 7.6923 21.5575 7.73489C21.5276 7.77751 21.4891 7.81351 21.4448 7.84065C21.4004 7.86779 21.3505 7.88548 21.2991 7.89265H21.2948L21.2045 7.90504L21.1149 7.91693C20.8314 7.95379 20.5475 7.98822 20.2635 8.02026C19.7038 8.08395 19.1433 8.13908 18.5819 8.18555C17.4663 8.27822 16.3486 8.33901 15.2285 8.36791C14.6578 8.38308 14.0873 8.39014 13.5169 8.38908C11.2466 8.38732 8.97835 8.25555 6.72318 7.99442C6.47903 7.96548 6.23491 7.9345 5.99075 7.90297C6.18006 7.92728 5.85317 7.88438 5.78696 7.87508C5.63178 7.8534 5.4766 7.83085 5.32143 7.8074C4.80052 7.7294 4.28276 7.63332 3.76292 7.54912C3.13442 7.44579 2.53338 7.49748 1.96492 7.8074C1.49829 8.06242 1.12062 8.45351 0.882279 8.92842C0.637102 9.43469 0.564186 9.98591 0.454516 10.5299C0.344846 11.0739 0.174156 11.6592 0.238827 12.2176C0.377947 13.4228 1.22162 14.4023 2.4351 14.6213C3.57668 14.8279 4.7245 14.9954 5.87539 15.1379C10.3964 15.6909 14.9638 15.7571 19.499 15.3353C19.8683 15.3008 20.2371 15.2633 20.6053 15.2227C20.7203 15.21 20.8369 15.2232 20.9461 15.2614C21.0553 15.2995 21.1546 15.3616 21.2367 15.443C21.3187 15.5244 21.382 15.6232 21.4208 15.732C21.4597 15.8408 21.4738 15.957 21.4621 16.0719L21.347 17.1867C21.1157 19.4394 20.8844 21.692 20.6532 23.9443C20.4117 26.3097 20.1687 28.6748 19.9242 31.0396C19.8552 31.7059 19.7863 32.3718 19.7173 33.0377C19.6511 33.693 19.6418 34.3694 19.5171 35.0173C19.3206 36.0357 18.63 36.6616 17.6224 36.8902C16.6992 37.1 15.7562 37.2102 14.8095 37.2188C13.76 37.2243 12.711 37.1781 11.6615 37.1836C10.5411 37.1898 9.16879 37.0867 8.30392 36.2537C7.54408 35.5224 7.43908 34.3769 7.33562 33.3867C7.19768 32.0757 7.06095 30.7647 6.92544 29.4537L6.16506 22.1652L5.67313 17.4492C5.66489 17.3712 5.6566 17.2942 5.64882 17.2157C5.58989 16.6531 5.19106 16.1024 4.56261 16.1308C4.02462 16.1546 3.41325 16.6112 3.47635 17.2157L3.84102 20.712L4.59516 27.9444C4.81002 29.9988 5.02434 32.0534 5.23814 34.1083C5.27953 34.502 5.31832 34.8969 5.36175 35.2902C5.59813 37.4416 7.24303 38.6008 9.27999 38.9271C10.4697 39.1185 11.6884 39.1577 12.8957 39.1773C14.4433 39.202 16.0065 39.2616 17.5288 38.9816C19.7845 38.5683 21.477 37.0639 21.7185 34.7302C21.7876 34.0569 21.8567 33.3828 21.9254 32.709C22.1547 30.48 22.3836 28.2509 22.6125 26.0216L23.3602 18.7376L23.7034 15.3993C23.7202 15.2338 23.7905 15.0781 23.9028 14.9554C24.0155 14.8327 24.1647 14.7494 24.3281 14.7179C24.9732 14.5924 25.5897 14.378 26.0487 13.8878C26.7791 13.1072 26.9244 12.0895 26.666 11.0635ZM2.40199 11.7837C2.41181 11.779 2.39371 11.8632 2.38597 11.9025C2.3844 11.8431 2.3875 11.7904 2.40199 11.7837ZM2.46458 12.2672C2.46977 12.2636 2.48528 12.2843 2.5013 12.309C2.47699 12.2863 2.46148 12.2693 2.46407 12.2672H2.46458ZM2.52615 12.3483C2.54838 12.386 2.56028 12.4098 2.52615 12.3483V12.3483ZM2.64976 12.4485H2.65286C2.65286 12.4521 2.65856 12.4558 2.66064 12.4594C2.65718 12.4554 2.65337 12.4517 2.64925 12.4485H2.64976ZM24.2982 12.2987C24.0666 12.5188 23.7171 12.6211 23.3723 12.6722C19.5031 13.2456 15.5776 13.5359 11.6661 13.4078C8.86672 13.3123 6.09677 13.0018 3.3253 12.6107C3.05373 12.5725 2.75943 12.5229 2.57268 12.323C2.22094 11.9459 2.39371 11.1865 2.48528 10.7308C2.56907 10.3134 2.72943 9.75704 3.2265 9.69763C4.0024 9.60673 4.90348 9.93371 5.67109 10.0499C6.59525 10.1908 7.52288 10.3036 8.45395 10.3883C12.4275 10.7499 16.4678 10.6936 20.4239 10.1647C21.1448 10.0679 21.8633 9.95544 22.5792 9.82732C23.2172 9.71312 23.924 9.49877 24.3096 10.1585C24.5739 10.6079 24.6088 11.2092 24.568 11.717C24.5554 11.9383 24.4588 12.1464 24.2975 12.2987H24.2982Z" fill="white"/>
</svg>
