<svg width="138" height="27" viewBox="0 0 138 27" fill="none" xmlns="http://www.w3.org/2000/svg">
<path fill-rule="evenodd" clip-rule="evenodd" d="M9.76598 13.0352C9.5402 13.4658 9.22961 13.8409 8.8342 14.1591C8.43879 14.4776 7.97781 14.7369 7.45047 14.9365C6.92352 15.1367 6.39303 15.2709 5.85979 15.3394C5.32617 15.4081 4.80825 15.4021 4.30682 15.3206C3.80461 15.2396 3.37739 15.0742 3.02635 14.8241L3.42216 10.7215C3.78576 10.5967 4.2436 10.4686 4.79608 10.3374C5.34816 10.2065 5.91595 10.1126 6.49983 10.0565C7.08372 10.0002 7.63541 10.0068 8.15647 10.0753C8.67713 10.144 9.08825 10.3094 9.38942 10.5718C9.55277 10.7215 9.69099 10.8838 9.80368 11.0587C9.91677 11.2337 9.98548 11.4148 10.011 11.6021C10.0734 12.1266 9.99215 12.6043 9.76598 13.0352ZM4.02411 4.29592C4.28758 4.13361 4.60485 3.9898 4.97474 3.86478C5.34502 3.74027 5.72472 3.65255 6.11385 3.60266C6.50258 3.55298 6.88228 3.54631 7.25296 3.58388C7.62284 3.62141 7.94953 3.72435 8.23186 3.89286C8.51418 4.06161 8.72425 4.30521 8.86247 4.62345C9.00029 4.94216 9.03799 5.34498 8.97517 5.83196C8.9253 6.21914 8.77098 6.5471 8.51418 6.81545C8.25699 7.08424 7.94286 7.30882 7.57298 7.48996C7.2027 7.67129 6.81043 7.81482 6.39656 7.92059C5.98191 8.02706 5.58336 8.10525 5.20091 8.15494C4.81807 8.2051 4.48548 8.23647 4.20316 8.24859C3.92084 8.26117 3.7355 8.26733 3.64754 8.26733L4.02411 4.29592ZM11.7992 10.3843C11.5985 9.94741 11.3288 9.56333 10.9899 9.23204C10.651 8.90122 10.249 8.66094 9.78483 8.51098C9.98548 8.34863 10.1834 8.09267 10.3781 7.74282C10.5725 7.39345 10.7386 7.01223 10.8768 6.60012C11.0146 6.18776 11.1093 5.77278 11.1591 5.35427C11.209 4.93596 11.1902 4.57686 11.103 4.2769C10.889 3.5278 10.5537 2.94074 10.0954 2.51604C9.63719 2.09157 9.10396 1.79804 8.49533 1.63549C7.88632 1.47365 7.21526 1.43894 6.48098 1.53259C5.74671 1.6262 4.99673 1.81039 4.23143 2.08514C4.23143 2.02286 4.23771 1.95729 4.25028 1.88859C4.26245 1.82016 4.26873 1.74812 4.26873 1.67302C4.26873 1.48576 4.17489 1.32365 3.98641 1.18604C3.79833 1.04867 3.58197 0.967646 3.33734 0.94243C3.09232 0.917724 2.85398 0.97047 2.62153 1.10169C2.38946 1.23286 2.22926 1.47365 2.14169 1.82274C2.04117 2.94694 1.94065 4.11482 1.84052 5.326C1.74 6.53761 1.6332 7.76161 1.5205 8.99819C1.40742 10.2345 1.29433 11.4616 1.18164 12.6792C1.06855 13.897 0.955467 15.0677 0.842773 16.1916C0.880469 16.5289 0.974312 16.7913 1.12509 16.9786C1.27548 17.1661 1.45139 17.2785 1.65204 17.3158C1.85269 17.3534 2.06316 17.3187 2.28266 17.2127C2.50215 17.1069 2.69377 16.9222 2.85712 16.6601C3.35894 16.9349 3.92398 17.1129 4.55145 17.1942C5.17892 17.2752 5.81543 17.2752 6.46253 17.1942C7.10846 17.1129 7.74535 16.96 8.37283 16.735C9.0003 16.5104 9.57162 16.2292 10.086 15.8922C10.6008 15.5549 11.0335 15.1706 11.3853 14.74C11.7364 14.3089 11.9688 13.8437 12.0815 13.3444C12.1946 12.8322 12.226 12.3203 12.1757 11.8081C12.1255 11.2962 11.9998 10.8218 11.7992 10.3843Z" fill="white"/>
<path fill-rule="evenodd" clip-rule="evenodd" d="M30.1665 20.2753C30.0978 20.6874 30 21.1215 29.8747 21.5776C29.7491 22.0329 29.6018 22.4486 29.4326 22.8235C29.263 23.198 29.0749 23.5004 28.868 23.7317C28.6606 23.9627 28.4376 24.0596 28.1993 24.0223C28.0112 23.9968 27.8918 23.8784 27.8419 23.6662C27.7913 23.4537 27.7913 23.1913 27.8419 22.8796C27.8918 22.567 27.9888 22.2141 28.1333 21.8208C28.2778 21.4274 28.4537 21.0368 28.6606 20.6502C28.868 20.2627 29.1032 19.8913 29.3666 19.5353C29.6301 19.1797 29.9062 18.8828 30.1948 18.6456C30.2576 18.7205 30.2859 18.9078 30.2796 19.2077C30.2729 19.5074 30.2356 19.8635 30.1665 20.2753ZM36.5488 12.145C36.3792 11.9577 36.1722 11.8517 35.9272 11.8265C35.6826 11.8015 35.4344 11.9389 35.1839 12.2386C35.0206 12.5383 34.8132 12.8256 34.5623 13.1004C34.3114 13.3753 34.0511 13.6249 33.7813 13.8497C33.5112 14.0743 33.254 14.2682 33.0094 14.4304C32.7647 14.5929 32.5731 14.7115 32.4353 14.7864C32.385 14.3869 32.3564 13.956 32.3505 13.4937C32.3438 13.0317 32.3536 12.5635 32.3787 12.0888C32.416 11.4144 32.4946 10.7339 32.6139 10.0468C32.7333 9.35997 32.9057 8.68546 33.1319 8.0233C33.1319 7.67393 33.0498 7.38969 32.8868 7.17103C32.7235 6.95264 32.526 6.81503 32.2939 6.75891C32.0615 6.70283 31.8235 6.73397 31.5785 6.85256C31.3339 6.97138 31.1238 7.18695 30.9479 7.49879C30.7975 7.91115 30.6247 8.37314 30.4304 8.8851C30.2356 9.39726 30.0161 9.91872 29.7715 10.4494C29.5265 10.9806 29.2536 11.4956 28.9524 11.995C28.6512 12.4948 28.3218 12.9383 27.9641 13.3252C27.6063 13.7124 27.2172 14.0154 26.7971 14.2338C26.3761 14.4524 25.9218 14.5492 25.4322 14.5242C25.206 14.4617 25.0427 14.2932 24.9425 14.0182C24.842 13.7437 24.7823 13.4 24.7639 12.9879C24.745 12.5758 24.7639 12.1231 24.82 11.6297C24.8766 11.1365 24.952 10.6462 25.0462 10.1592C25.14 9.67201 25.2437 9.20997 25.3564 8.77291C25.4695 8.33585 25.5759 7.96722 25.6764 7.66754C25.8272 7.30554 25.8272 7.00228 25.6764 6.75891C25.526 6.5153 25.3191 6.35322 25.0556 6.27169C24.7921 6.19067 24.5157 6.19397 24.2271 6.28122C23.9385 6.36867 23.7312 6.56213 23.6059 6.86181C23.3923 7.37424 23.1976 7.94844 23.022 8.58538C22.8465 9.22236 22.7052 9.88138 22.5987 10.5619C22.4919 11.2428 22.4319 11.9173 22.4197 12.5853C22.4189 12.6288 22.4209 12.6702 22.4209 12.7134C22.1472 13.4395 21.8865 13.9883 21.6387 14.3555C21.3187 14.8303 20.9574 15.0364 20.5561 14.9737C20.3798 14.8988 20.2644 14.7241 20.2078 14.4491C20.1509 14.1746 20.1324 13.8374 20.1509 13.4374C20.1701 13.0381 20.2173 12.5853 20.2923 12.0793C20.368 11.5736 20.4615 11.0491 20.5746 10.5057C20.6877 9.96221 20.807 9.41628 20.9323 8.86656C21.0579 8.31707 21.1706 7.79871 21.2716 7.3115C21.259 6.87444 21.1302 6.54052 20.8852 6.30926C20.6409 6.07848 20.2985 5.98793 19.8595 6.03762C19.5584 6.1626 19.3353 6.32518 19.1912 6.52483C19.0467 6.72444 18.9305 6.98067 18.8429 7.29271C18.7923 7.4553 18.7173 7.77993 18.6168 8.26714C18.5163 8.75389 18.3879 9.31314 18.2308 9.94365C18.0741 10.5747 17.8888 11.2333 17.6756 11.9201C17.4623 12.6069 17.2236 13.2287 16.9605 13.7841C16.6967 14.3398 16.4081 14.7864 16.0943 15.1236C15.7806 15.4606 15.4417 15.5982 15.0777 15.5357C14.8767 15.4982 14.7483 15.2921 14.6917 14.9176C14.6352 14.5428 14.6262 14.081 14.6635 13.5313C14.7012 12.9818 14.7766 12.379 14.8892 11.7235C15.0023 11.0678 15.1182 10.4466 15.2375 9.8593C15.3569 9.27248 15.4669 8.75389 15.5674 8.30448C15.6675 7.85479 15.7366 7.5551 15.7743 7.40538C15.7743 7.04318 15.6922 6.75299 15.5297 6.53409C15.3663 6.31589 15.1688 6.17828 14.9364 6.12197C14.7039 6.06589 14.4656 6.09703 14.2213 6.21562C13.9763 6.33444 13.7662 6.55001 13.5903 6.86181C13.5275 7.19907 13.4458 7.58958 13.3457 8.03283C13.2452 8.47605 13.1482 8.93193 13.054 9.40036C12.9597 9.86879 12.8718 10.3277 12.7905 10.7774C12.7088 11.2271 12.6491 11.6204 12.6114 11.9577C12.5863 12.2198 12.558 12.5416 12.527 12.9224C12.4952 13.3036 12.4795 13.7062 12.4795 14.1306C12.4795 14.5556 12.5109 14.977 12.5741 15.3953C12.6366 15.8138 12.7496 16.1979 12.9126 16.5473C13.0755 16.8971 13.3049 17.1842 13.6001 17.409C13.8946 17.6338 14.2681 17.7586 14.72 17.7839C15.1841 17.8086 15.589 17.7746 15.9345 17.6807C16.2793 17.587 16.593 17.4402 16.8757 17.2403C17.158 17.0409 17.4152 16.8035 17.6477 16.5285C17.8794 16.254 18.1087 15.9543 18.3345 15.6294C18.5481 16.1042 18.8241 16.4724 19.163 16.7348C19.5018 16.9969 19.8595 17.1533 20.2361 17.203C20.6123 17.2526 20.9955 17.2001 21.3846 17.0437C21.7734 16.8878 22.1248 16.6224 22.4385 16.2475C22.6455 16.0177 22.8402 15.7565 23.0232 15.4678C23.101 15.603 23.1834 15.7335 23.2765 15.854C23.5839 16.254 24.0013 16.5285 24.5287 16.6784C25.0933 16.8284 25.645 16.8536 26.1849 16.7535C26.7244 16.6537 27.2392 16.4724 27.7285 16.2102C28.2181 15.9478 28.6728 15.6327 29.0937 15.2641C29.5139 14.8957 29.881 14.5118 30.1948 14.1119C30.1822 14.3992 30.1759 14.6711 30.1759 14.9268C30.1759 15.183 30.1696 15.4606 30.1575 15.7606C29.5296 16.1979 28.9367 16.7224 28.3783 17.3342C27.8196 17.9459 27.3299 18.5986 26.9098 19.2917C26.4892 19.9847 26.1598 20.6874 25.9218 21.3992C25.6831 22.1113 25.5669 22.7764 25.5731 23.3949C25.5794 24.0129 25.7267 24.5529 26.0157 25.0149C26.3039 25.4772 26.7747 25.8078 27.4273 26.0078C28.1054 26.2204 28.7011 26.2262 29.2163 26.0266C29.7306 25.8266 30.1791 25.4957 30.5619 25.0337C30.9447 24.5717 31.2585 24.0129 31.5035 23.3572C31.7481 22.7015 31.9425 22.0176 32.087 21.3059C32.2311 20.5941 32.3222 19.8941 32.3599 19.2077C32.3976 18.5206 32.3976 17.9084 32.3599 17.3715C33.4393 16.922 34.324 16.3538 35.0143 15.6667C35.7046 14.9803 36.2755 14.2557 36.7275 13.4937C36.8653 13.3064 36.9124 13.0816 36.8688 12.8194C36.8244 12.5571 36.718 12.3322 36.5488 12.145Z" fill="white"/>
<path fill-rule="evenodd" clip-rule="evenodd" d="M60.2973 10.9464C60.335 10.6594 60.3915 10.3563 60.4665 10.0379C60.5419 9.71939 60.6361 9.41017 60.7492 9.11049C60.8619 8.8108 60.9938 8.55174 61.1446 8.33308C61.295 8.11465 61.4552 7.95853 61.6245 7.86465C61.7941 7.77123 61.9661 7.78049 62.1424 7.89269C62.3305 8.00535 62.4463 8.24253 62.4907 8.60449C62.5342 8.96716 62.4907 9.3541 62.3587 9.76621C62.2268 10.1786 61.9916 10.5655 61.6527 10.9277C61.3139 11.2901 60.8556 11.5271 60.2784 11.6395C60.2533 11.4651 60.2596 11.2338 60.2973 10.9464ZM66.8201 11.7144C66.6132 11.6523 66.4157 11.6459 66.2272 11.6958C66.0391 11.7457 65.9198 11.8769 65.8699 12.0894C65.769 12.4889 65.6088 12.8979 65.3893 13.3163C65.1698 13.7348 64.9 14.1312 64.5804 14.506C64.2604 14.8806 63.8991 15.2117 63.4978 15.4988C63.0958 15.7861 62.6756 15.9921 62.2362 16.1169C61.7968 16.2545 61.4328 16.27 61.1446 16.1637C60.8556 16.058 60.6267 15.8766 60.4575 15.6207C60.2878 15.3647 60.1653 15.0555 60.0903 14.6933C60.0149 14.3311 59.971 13.9565 59.9584 13.5691C60.6738 13.6193 61.3107 13.4914 61.8695 13.1851C62.4274 12.8794 62.9014 12.4732 63.2905 11.9675C63.6792 11.4617 63.9745 10.8935 64.1752 10.2627C64.3758 9.63218 64.4889 9.00449 64.514 8.3799C64.5266 7.79284 64.439 7.29661 64.2506 6.89068C64.0625 6.48496 63.808 6.16912 63.488 5.94453C63.1684 5.71971 62.8009 5.58849 62.387 5.5512C61.9731 5.51363 61.5522 5.56994 61.1254 5.7197C60.6106 5.89461 60.1748 6.17861 59.817 6.57222C59.4593 6.96555 59.1613 7.42163 58.9229 7.93974C58.6846 8.4581 58.4961 9.01684 58.3583 9.61625C58.2201 10.2159 58.1196 10.806 58.0571 11.3869C58.0006 11.9081 57.9704 12.4064 57.9597 12.8875C57.9327 12.9486 57.9067 13.0073 57.8781 13.0726C57.6833 13.5164 57.4571 13.9503 57.2003 14.3748C56.9432 14.7995 56.6573 15.1555 56.344 15.4426C56.0302 15.73 55.7039 15.8298 55.365 15.7424C55.164 15.6927 55.0545 15.4612 55.0356 15.0493C55.0168 14.637 55.0384 14.125 55.1012 13.513C55.164 12.9013 55.2363 12.2389 55.3179 11.5271C55.3992 10.8153 55.44 10.1348 55.44 9.48527C55.44 8.9232 55.3332 8.38323 55.12 7.86465C54.9064 7.34676 54.6147 6.91563 54.2448 6.57222C53.8745 6.22853 53.4445 6.00061 52.9553 5.88845C52.4656 5.77578 51.9387 5.85088 51.374 6.11304C50.809 6.37543 50.3602 6.74378 50.028 7.21841C49.695 7.69327 49.3907 8.19261 49.1147 8.71716C49.0142 8.31739 48.8669 7.94618 48.6722 7.60249C48.4778 7.25908 48.2394 6.95935 47.9571 6.70316C47.6744 6.44743 47.3571 6.24755 47.0065 6.10374C46.6551 5.96045 46.2844 5.88845 45.8953 5.88845C45.5191 5.88845 45.1708 5.96045 44.8508 6.10374C44.5308 6.24755 44.239 6.43151 43.9751 6.65633C43.7117 6.88139 43.4733 7.13406 43.2597 7.41519C43.0465 7.69614 42.858 7.97422 42.6951 8.24873C42.6695 7.92406 42.6417 7.64006 42.6106 7.39618C42.5788 7.15284 42.5223 6.94676 42.441 6.77825C42.3593 6.60951 42.2435 6.48167 42.0927 6.39418C41.9419 6.30696 41.7287 6.263 41.4527 6.263C41.3145 6.263 41.1763 6.29104 41.0384 6.34712C40.9002 6.40347 40.7777 6.48167 40.6713 6.58147C40.5645 6.68178 40.4832 6.8032 40.4267 6.94676C40.3701 7.09033 40.3548 7.25598 40.3795 7.44323C40.3921 7.58084 40.4267 7.74606 40.4832 7.93974C40.5394 8.13343 40.5928 8.38657 40.643 8.69837C40.6933 9.01069 40.7341 9.38857 40.7655 9.83182C40.7969 10.2753 40.806 10.8186 40.7938 11.4617C40.7809 12.1051 40.7341 12.8573 40.6525 13.7191C40.5708 14.5809 40.442 15.58 40.2665 16.7163C40.2413 16.9787 40.3419 17.1912 40.568 17.3535C40.7938 17.5156 41.051 17.6092 41.3396 17.6344C41.6282 17.6594 41.9015 17.6092 42.1587 17.4847C42.4159 17.3594 42.5635 17.141 42.6008 16.829C42.6385 16.2419 42.7108 15.6176 42.8176 14.9554C42.924 14.2938 43.0559 13.6381 43.213 12.9885C43.3697 12.3392 43.5483 11.721 43.7494 11.1337C43.95 10.5467 44.173 10.0286 44.4177 9.57892C44.6627 9.12927 44.9167 8.77037 45.1802 8.50182C45.4437 8.23327 45.7197 8.09896 46.0087 8.09896C46.3598 8.09896 46.6327 8.25798 46.8274 8.57645C47.0218 8.89516 47.1596 9.30441 47.2417 9.80351C47.323 10.3034 47.3607 10.85 47.3548 11.443C47.3481 12.0362 47.323 12.6075 47.2794 13.157C47.2354 13.7067 47.1851 14.1968 47.1286 14.6277C47.0721 15.0586 47.0312 15.3554 47.0065 15.5175C47.0065 15.8049 47.116 16.0326 47.3355 16.2013C47.555 16.3698 47.7997 16.4699 48.0698 16.501C48.34 16.5324 48.5936 16.4822 48.8324 16.351C49.0707 16.2198 49.2089 15.9986 49.2466 15.686C49.3719 14.7869 49.5446 13.8848 49.7641 12.9792C49.9836 12.0737 50.2349 11.2621 50.5173 10.5439C50.7996 9.82563 51.1133 9.23861 51.4585 8.78276C51.8036 8.32716 52.1708 8.09896 52.5599 8.09896C52.7605 8.09896 52.9145 8.23657 53.0209 8.51108C53.1277 8.78582 53.1811 9.16041 53.1811 9.63504C53.1811 9.98488 53.1528 10.344 53.0966 10.7124C53.0397 11.0808 52.9741 11.4617 52.8987 11.8551C52.8234 12.2486 52.7574 12.6513 52.7008 13.0634C52.6447 13.4757 52.6164 13.9064 52.6164 14.3561C52.6164 14.6683 52.6478 15.0305 52.7107 15.4426C52.7731 15.8545 52.8921 16.2453 53.068 16.6134C53.2439 16.982 53.4854 17.2941 53.7932 17.5501C54.1007 17.806 54.4926 17.9341 54.9692 17.9341C55.6851 17.9341 56.3184 17.7811 56.8709 17.4752C57.423 17.1693 57.8969 16.7698 58.2923 16.2764C58.3128 16.2505 58.3316 16.2229 58.3516 16.1973C58.3819 16.2702 58.4086 16.3475 58.4427 16.4168C58.7125 16.9663 59.0796 17.3908 59.5441 17.6908C60.0083 17.9905 60.5545 18.1559 61.1823 18.1872C61.8094 18.2181 62.4934 18.1026 63.2344 17.8405C63.7861 17.6406 64.2663 17.3908 64.6742 17.0911C65.0818 16.7914 65.449 16.4261 65.7753 15.9952C66.102 15.5643 66.3996 15.0679 66.6697 14.506C66.9399 13.9437 67.2124 13.3008 67.4884 12.5761C67.5387 12.3768 67.4916 12.1987 67.3475 12.0424C67.203 11.8864 67.0275 11.7771 66.8201 11.7144Z" fill="white"/>
<path fill-rule="evenodd" clip-rule="evenodd" d="M77.0511 9.62474C76.9883 9.99337 76.9039 10.3995 76.7971 10.8425C76.6903 11.286 76.5556 11.745 76.3923 12.2196C76.2293 12.6942 76.0283 13.122 75.7899 13.5027C75.5516 13.884 75.2783 14.1865 74.9712 14.4114C74.6634 14.6362 74.3092 14.7298 73.9075 14.6923C73.7065 14.6676 73.5525 14.5302 73.4461 14.2802C73.3393 14.0306 73.2832 13.7119 73.2765 13.3247C73.2702 12.9378 73.3048 12.5131 73.3802 12.0509C73.4555 11.5891 73.5714 11.1361 73.7288 10.6926C73.8855 10.2496 74.0767 9.84031 74.3025 9.46549C74.5287 9.09094 74.789 8.80051 75.0839 8.59447C75.3788 8.38839 75.7023 8.29192 76.0534 8.30404C76.4048 8.31663 76.7814 8.4913 77.1831 8.82855C77.1576 8.99114 77.114 9.25659 77.0511 9.62474ZM83.7436 11.0579C83.5489 10.958 83.3482 10.9364 83.1413 10.9925C82.9344 11.0486 82.7867 11.2392 82.6992 11.5639C82.6489 11.9137 82.5358 12.3256 82.3603 12.8002C82.1844 13.2748 81.9676 13.7247 81.7108 14.149C81.4533 14.5737 81.1584 14.9266 80.8258 15.2075C80.4932 15.4887 80.1386 15.6168 79.7625 15.5914C79.4483 15.5667 79.2284 15.4074 79.1036 15.1139C78.9775 14.8204 78.912 14.4522 78.9057 14.0085C78.899 13.5655 78.9434 13.0659 79.0372 12.51C79.1314 11.9544 79.2445 11.4018 79.3761 10.8518C79.508 10.3026 79.6431 9.77471 79.7813 9.26894C79.9191 8.76322 80.0318 8.33541 80.1202 7.9858C80.2203 7.67349 80.1889 7.40828 80.0259 7.18937C79.8626 6.97118 79.6588 6.81478 79.4142 6.72118C79.1692 6.62753 78.921 6.60255 78.6701 6.64627C78.4192 6.69004 78.2562 6.82431 78.1808 7.0489C77.4403 6.41196 76.728 6.06851 76.0444 6.01863C75.36 5.96871 74.7293 6.11867 74.1521 6.46828C73.5745 6.81788 73.0633 7.32365 72.618 7.9858C72.1723 8.64792 71.8115 9.36902 71.535 10.1495C71.259 10.93 71.0866 11.7264 71.0175 12.5381C70.9484 13.3499 71.0018 14.09 71.1777 14.7581C71.3536 15.4262 71.6638 15.9728 72.1095 16.3971C72.5548 16.8218 73.1607 17.0343 73.9263 17.0343C74.2652 17.0343 74.5915 16.9656 74.9053 16.8282C75.2186 16.6906 75.5076 16.5283 75.7711 16.341C76.0345 16.1537 76.2666 15.9569 76.468 15.7509C76.6683 15.5448 76.8254 15.3732 76.9384 15.2356C77.026 15.6853 77.1705 16.0665 77.3716 16.3786C77.5718 16.6906 77.8011 16.947 78.0583 17.1464C78.3155 17.3461 78.5857 17.4929 78.868 17.5868C79.1503 17.6805 79.4236 17.7273 79.6867 17.7273C80.2768 17.7273 80.8285 17.5274 81.3437 17.1276C81.8581 16.7284 82.3195 16.2378 82.7274 15.6572C83.135 15.0764 83.4711 14.4646 83.7342 13.8212C83.9981 13.1781 84.1736 12.6067 84.2616 12.1069C84.3495 11.9196 84.3334 11.7231 84.2144 11.5171C84.0951 11.311 83.9384 11.1582 83.7436 11.0579Z" fill="white"/>
<path fill-rule="evenodd" clip-rule="evenodd" d="M117.631 21.4004C117.525 21.8247 117.358 22.1843 117.132 22.4777C116.906 22.771 116.624 22.924 116.285 22.9369C116.072 22.9491 115.908 22.8365 115.795 22.5996C115.683 22.362 115.604 22.0561 115.56 21.6816C115.516 21.3067 115.497 20.8883 115.504 20.4263C115.51 19.9643 115.529 19.5083 115.56 19.0587C115.591 18.6093 115.629 18.1905 115.673 17.8036C115.717 17.4162 115.751 17.117 115.777 16.9045C116.203 16.9544 116.558 17.1383 116.84 17.4571C117.123 17.7755 117.339 18.1532 117.49 18.5905C117.641 19.0276 117.728 19.4993 117.754 20.0047C117.778 20.5106 117.738 20.9757 117.631 21.4004ZM110.816 21.4004C110.71 21.8247 110.543 22.1843 110.317 22.4777C110.092 22.771 109.809 22.924 109.47 22.9369C109.257 22.9491 109.094 22.8365 108.981 22.5996C108.868 22.362 108.789 22.0561 108.746 21.6816C108.701 21.3067 108.682 20.8883 108.689 20.4263C108.695 19.9643 108.714 19.5083 108.746 19.0587C108.777 18.6093 108.814 18.1905 108.858 17.8036C108.902 17.4162 108.936 17.117 108.962 16.9045C109.388 16.9544 109.743 17.1383 110.025 17.4571C110.308 17.7755 110.524 18.1532 110.675 18.5905C110.826 19.0276 110.913 19.4993 110.939 20.0047C110.963 20.5106 110.922 20.9757 110.816 21.4004ZM103.823 10.7598C103.81 11.0593 103.782 11.3248 103.738 11.5558C103.694 11.7873 103.634 11.9337 103.559 11.9962C103.421 11.9211 103.251 11.7279 103.05 11.4153C102.85 11.1033 102.693 10.7501 102.58 10.3567C102.467 9.96341 102.432 9.57651 102.476 9.19529C102.52 8.81455 102.718 8.51815 103.069 8.30545C103.207 8.23059 103.326 8.25862 103.427 8.38984C103.528 8.52101 103.609 8.71137 103.672 8.96117C103.734 9.21121 103.778 9.49831 103.804 9.82298C103.829 10.1478 103.835 10.4599 103.823 10.7598ZM102.156 14.4972C101.962 14.703 101.745 14.881 101.507 15.031C101.268 15.1809 101.024 15.2933 100.773 15.3682C100.521 15.4433 100.296 15.4618 100.095 15.4243C99.5302 15.3121 99.0971 15.0683 98.796 14.6937C98.4948 14.3191 98.3032 13.879 98.2219 13.3733C98.1402 12.8673 98.1492 12.327 98.2502 11.7526C98.3503 11.1782 98.5195 10.6444 98.7583 10.1509C98.9966 9.65753 99.2856 9.23282 99.6241 8.87705C99.9629 8.52102 100.333 8.29953 100.735 8.2118C100.584 8.84874 100.534 9.5078 100.584 10.1883C100.634 10.8689 100.798 11.509 101.074 12.1083C101.249 12.4711 101.46 12.8016 101.704 13.1013C101.949 13.4013 102.247 13.6573 102.599 13.8695C102.498 14.082 102.351 14.2911 102.156 14.4972ZM122.987 10.9471C123.025 10.66 123.081 10.3567 123.157 10.0383C123.232 9.72004 123.326 9.41086 123.439 9.11113C123.552 8.81121 123.684 8.55215 123.834 8.33372C123.985 8.11533 124.145 7.95894 124.314 7.86529C124.484 7.77164 124.656 7.78094 124.832 7.89333C125.02 8.006 125.136 8.24317 125.18 8.60513C125.224 8.9676 125.18 9.35451 125.048 9.76686C124.917 10.179 124.681 10.5662 124.342 10.9281C124.004 11.2908 123.545 11.5278 122.968 11.6402C122.943 11.4655 122.949 11.2345 122.987 10.9471ZM130.574 10.9471C130.612 10.66 130.668 10.3567 130.743 10.0383C130.819 9.72004 130.913 9.41086 131.026 9.11113C131.139 8.81121 131.27 8.55215 131.421 8.33372C131.572 8.11533 131.732 7.95894 131.901 7.86529C132.071 7.77164 132.243 7.78094 132.419 7.89333C132.607 8.006 132.723 8.24317 132.767 8.60513C132.811 8.9676 132.767 9.35451 132.635 9.76686C132.504 10.179 132.268 10.5662 131.929 10.9281C131.591 11.2908 131.132 11.5278 130.555 11.6402C130.53 11.4655 130.536 11.2345 130.574 10.9471ZM137.624 12.043C137.48 11.8871 137.304 11.7778 137.097 11.715C136.89 11.6527 136.692 11.6466 136.504 11.6965C136.316 11.7464 136.196 11.8776 136.146 12.0898C136.046 12.4896 135.886 12.8986 135.666 13.3167C135.447 13.7354 135.177 14.1319 134.857 14.5064C134.537 14.881 134.176 15.2123 133.775 15.4994C133.372 15.7867 132.952 15.9928 132.513 16.1173C132.074 16.2552 131.71 16.2706 131.421 16.1644C131.132 16.0584 130.903 15.8773 130.734 15.6213C130.565 15.3651 130.442 15.0562 130.367 14.6937C130.292 14.3318 130.247 13.9572 130.235 13.5698C130.951 13.6199 131.587 13.4921 132.146 13.1857C132.704 12.8798 133.178 12.4736 133.568 11.9679C133.956 11.4624 134.251 10.8941 134.452 10.2634C134.653 9.63258 134.766 9.00513 134.791 8.38055C134.803 7.79353 134.715 7.29701 134.527 6.89109C134.339 6.48541 134.085 6.16976 133.765 5.94517C133.445 5.72012 133.078 5.58913 132.663 5.55161C132.249 5.51404 131.829 5.57062 131.402 5.72011C130.887 5.89525 130.451 6.17929 130.094 6.57262C129.736 6.96619 129.438 7.42227 129.2 7.94015C128.961 8.45874 128.773 9.01725 128.635 9.6169C128.496 10.2163 128.396 10.8067 128.334 11.3873C128.273 11.9508 128.24 12.4901 128.232 13.0063C128.185 13.1092 128.134 13.2126 128.079 13.3167C127.86 13.7354 127.59 14.1319 127.27 14.5064C126.95 14.881 126.589 15.2123 126.188 15.4994C125.786 15.7867 125.365 15.9928 124.926 16.1173C124.487 16.2552 124.123 16.2706 123.834 16.1644C123.545 16.0584 123.316 15.8773 123.147 15.6213C122.978 15.3651 122.855 15.0562 122.78 14.6937C122.705 14.3318 122.661 13.9572 122.648 13.5698C123.364 13.6199 124 13.4921 124.559 13.1857C125.117 12.8798 125.591 12.4736 125.98 11.9679C126.369 11.4624 126.664 10.8941 126.865 10.2634C127.066 9.63258 127.179 9.00513 127.204 8.38055C127.216 7.79353 127.129 7.29701 126.941 6.89109C126.752 6.48541 126.498 6.16976 126.178 5.94517C125.858 5.72012 125.491 5.58913 125.077 5.55161C124.662 5.51404 124.242 5.57062 123.816 5.72011C123.3 5.89525 122.864 6.17929 122.507 6.57262C122.149 6.96619 121.851 7.42227 121.613 7.94015C121.374 8.45874 121.186 9.01725 121.048 9.6169C120.91 10.2163 120.809 10.8067 120.747 11.3873C120.711 11.7148 120.688 12.0323 120.67 12.3441C120.549 12.4468 120.43 12.5502 120.304 12.6517C119.872 13.0015 119.416 13.3167 118.939 13.5978C118.462 13.879 117.966 14.11 117.452 14.2911C116.937 14.4722 116.41 14.5815 115.871 14.6189L117.038 2.17957C117.114 1.91717 117.076 1.68643 116.925 1.48655C116.775 1.28666 116.58 1.14929 116.342 1.07443C116.103 0.99933 115.849 1.00572 115.579 1.09298C115.309 1.18066 115.087 1.38055 114.911 1.69235C114.823 2.16721 114.732 2.81651 114.638 3.64074C114.544 4.46498 114.449 5.36431 114.356 6.33851C114.261 7.3127 114.167 8.31803 114.073 9.3545C113.979 10.3914 113.897 11.3593 113.828 12.2583C113.825 12.2983 113.823 12.3344 113.82 12.3738C113.71 12.4665 113.603 12.5599 113.489 12.6517C113.057 13.0015 112.601 13.3167 112.124 13.5978C111.647 13.879 111.152 14.11 110.637 14.2911C110.123 14.4722 109.595 14.5815 109.056 14.6189L110.223 2.17957C110.299 1.91717 110.261 1.68643 110.11 1.48655C109.96 1.28666 109.765 1.14929 109.527 1.07443C109.288 0.99933 109.034 1.00572 108.764 1.09298C108.494 1.18066 108.272 1.38055 108.096 1.69235C108.008 2.16721 107.917 2.81651 107.823 3.64074C107.729 4.46498 107.635 5.36431 107.541 6.33851C107.446 7.3127 107.352 8.31803 107.258 9.3545C107.164 10.3914 107.082 11.3593 107.014 12.2583C107.012 12.2764 107.011 12.2928 107.009 12.3109C106.812 12.4019 106.597 12.4818 106.364 12.5488C106.125 12.6177 105.856 12.6583 105.554 12.6707C105.605 12.4456 105.645 12.1958 105.677 11.9211C105.708 11.6466 105.733 11.3593 105.752 11.0593C105.771 10.7598 105.777 10.4599 105.771 10.1602C105.765 9.86027 105.749 9.58576 105.724 9.33572C105.661 8.79909 105.545 8.29 105.376 7.80898C105.206 7.32839 104.977 6.9258 104.689 6.60066C104.4 6.276 104.039 6.05737 103.606 5.94517C103.173 5.83274 102.668 5.87007 102.091 6.05737C101.237 5.94517 100.468 6.02337 99.7843 6.29168C99.1003 6.56051 98.507 6.95051 98.0051 7.46243C97.5033 7.97486 97.0922 8.57709 96.7722 9.27039C96.4522 9.96341 96.2386 10.6755 96.1321 11.4058C96.087 11.7155 96.065 12.0238 96.0583 12.3313C95.864 12.7273 95.6511 13.0733 95.4167 13.3637C95.0841 13.7758 94.739 14.1131 94.3813 14.3752C94.0236 14.6376 93.669 14.8375 93.318 14.9749C92.9661 15.1125 92.6524 15.2061 92.3763 15.2558C92.05 15.3183 91.7363 15.3247 91.4351 15.2746C91.134 15.2249 90.8575 15.0811 90.607 14.8437C90.406 14.669 90.2521 14.3878 90.1456 14.0007C90.0388 13.6135 89.9764 13.1736 89.9576 12.68C89.9387 12.1865 89.9576 11.6713 90.0137 11.1344C90.0703 10.5975 90.1672 10.0884 90.3055 9.60764C90.4437 9.12682 90.6188 8.69596 90.8328 8.3147C91.0456 7.93423 91.2969 7.66231 91.5859 7.5C91.7485 7.52517 91.8494 7.62168 91.8871 7.79019C91.9248 7.95894 91.9338 8.15882 91.915 8.38984C91.8965 8.62105 91.8683 8.85827 91.8306 9.10164C91.7929 9.34525 91.774 9.54847 91.774 9.71055C91.8368 10.0478 91.959 10.3102 92.1411 10.4974C92.3229 10.6847 92.5271 10.7943 92.7529 10.8252C92.9787 10.8566 93.2013 10.8036 93.4216 10.666C93.6407 10.5288 93.8194 10.3102 93.958 10.0102C93.9702 10.0228 93.989 10.029 94.0141 10.029L94.278 7.64996C94.353 7.32506 94.3027 7.03796 94.1272 6.78819C93.9513 6.53839 93.7192 6.39462 93.4306 6.35729C93.0666 5.83274 92.5739 5.55494 91.9527 5.52356C91.3315 5.49243 90.6946 5.69537 90.042 6.13247C89.6403 6.42004 89.2857 6.81623 88.9783 7.322C88.6704 7.828 88.4199 8.38984 88.2255 9.008C88.0304 9.62615 87.8926 10.2791 87.8113 10.9659C87.7296 11.6527 87.7139 12.3211 87.7638 12.9702C87.814 13.6199 87.9303 14.2319 88.1125 14.8061C88.2943 15.3808 88.5483 15.8616 88.875 16.2485C89.151 16.5858 89.4644 16.8327 89.8158 16.9889C90.1672 17.145 90.5344 17.2415 90.9172 17.2791C91.3001 17.3164 91.6798 17.3007 92.0563 17.2322C92.4329 17.1638 92.7906 17.0671 93.1295 16.9418C93.5685 16.7797 94.0208 16.5734 94.4849 16.3236C94.9491 16.0741 95.3947 15.7742 95.8216 15.4243C96.0462 15.2403 96.2621 15.0398 96.471 14.8247C96.566 15.0595 96.6724 15.2867 96.8005 15.4994C97.1393 16.0612 97.5972 16.5173 98.1748 16.8669C98.7516 17.2165 99.4611 17.3848 100.302 17.3727C101.206 17.3601 102.04 17.1324 102.806 16.6889C103.571 16.2459 104.199 15.5928 104.689 14.7312C105.422 14.7312 106.143 14.611 106.852 14.3722C106.846 14.4477 106.84 14.5273 106.835 14.6003C106.785 15.2622 106.759 15.7116 106.759 15.9491C106.747 16.3612 106.719 16.87 106.675 17.4756C106.631 18.0814 106.602 18.7184 106.59 19.3863C106.578 20.0545 106.602 20.7291 106.665 21.4098C106.728 22.0902 106.86 22.7087 107.061 23.2647C107.261 23.82 107.546 24.2918 107.917 24.6792C108.287 25.0659 108.773 25.2973 109.376 25.3722C110.016 25.4592 110.568 25.3471 111.033 25.0349C111.497 24.7224 111.874 24.2949 112.163 23.7518C112.451 23.2083 112.655 22.5808 112.774 21.8691C112.893 21.1569 112.928 20.442 112.878 19.7236C112.827 19.0055 112.695 18.3281 112.482 17.6914C112.269 17.0542 111.974 16.5297 111.597 16.1173C111.824 16.0553 112.093 15.9367 112.407 15.7616C112.72 15.5869 113.044 15.3901 113.377 15.1714C113.458 15.1177 113.539 15.0611 113.62 15.006C113.59 15.4485 113.574 15.7642 113.574 15.9491C113.562 16.3612 113.534 16.87 113.489 17.4756C113.446 18.0814 113.417 18.7184 113.405 19.3863C113.392 20.0545 113.417 20.7291 113.48 21.4098C113.543 22.0902 113.675 22.7087 113.875 23.2647C114.076 23.82 114.362 24.2918 114.732 24.6792C115.102 25.0659 115.588 25.2973 116.191 25.3722C116.831 25.4592 117.383 25.3471 117.847 25.0349C118.312 24.7224 118.689 24.2949 118.977 23.7518C119.266 23.2083 119.47 22.5808 119.589 21.8691C119.708 21.1569 119.742 20.442 119.693 19.7236C119.642 19.0055 119.51 18.3281 119.298 17.6914C119.084 17.0542 118.789 16.5297 118.412 16.1173C118.638 16.0553 118.908 15.9367 119.222 15.7616C119.536 15.5869 119.859 15.3901 120.192 15.1714C120.364 15.0578 120.536 14.9407 120.708 14.8202C120.772 15.4309 120.911 15.9667 121.132 16.4173C121.403 16.967 121.769 17.3915 122.234 17.6914C122.698 17.9909 123.244 18.1565 123.872 18.1876C124.5 18.2185 125.183 18.1033 125.924 17.8409C126.476 17.6413 126.956 17.3915 127.364 17.0918C127.772 16.7918 128.139 16.4265 128.465 15.9959C128.484 15.9709 128.502 15.9438 128.52 15.9187C128.578 16.0936 128.643 16.2616 128.719 16.4173C128.99 16.967 129.357 17.3915 129.821 17.6914C130.285 17.9909 130.831 18.1565 131.459 18.1876C132.086 18.2185 132.77 18.1033 133.511 17.8409C134.063 17.6413 134.543 17.3915 134.951 17.0918C135.359 16.7918 135.726 16.4265 136.052 15.9959C136.379 15.5648 136.676 15.0683 136.946 14.5064C137.216 13.9443 137.489 13.3014 137.766 12.5768C137.815 12.3772 137.768 12.1992 137.624 12.043Z" fill="white"/>
</svg>
