<svg width="27" height="39" viewBox="0 0 27 39" fill="none" xmlns="http://www.w3.org/2000/svg">
<path d="M14.4301 17.7887C13.049 18.3792 11.4817 19.0487 9.45042 19.0487C8.60066 19.047 7.75506 18.9305 6.93652 18.7025L8.34143 33.108C8.39114 33.71 8.6658 34.2716 9.1108 34.6806C9.5558 35.09 10.1386 35.317 10.7436 35.3167C10.7436 35.3167 12.7355 35.4202 13.4002 35.4202C14.1156 35.4202 16.2607 35.3167 16.2607 35.3167C16.8655 35.3167 17.4482 35.0896 17.8931 34.6806C18.338 34.2712 18.6126 33.71 18.6623 33.108L20.167 17.1894C19.4946 16.9601 18.816 16.8077 18.0509 16.8077C16.7278 16.8072 15.6617 17.2623 14.4301 17.7887Z" fill="#5CE2C7"/>
<path d="M26.666 10.3135L26.4547 9.24779C26.2647 8.29155 25.8339 7.38803 24.8511 7.04242C24.5362 6.93187 24.1785 6.88434 23.937 6.65551C23.6955 6.42665 23.624 6.07124 23.5683 5.74163C23.465 5.13669 23.3676 4.53124 23.2616 3.92736C23.1701 3.40818 23.0975 2.82493 22.8591 2.34865C22.5489 1.70908 21.905 1.33508 21.2645 1.08763C20.9363 0.96528 20.6013 0.86179 20.2615 0.777673C18.6616 0.356104 16.9794 0.201124 15.3335 0.11281C13.3579 0.00394708 11.3771 0.0367312 9.4062 0.210966C7.93925 0.344221 6.39421 0.505437 5.00019 1.01218C4.49067 1.19767 3.96569 1.4203 3.57825 1.81344C3.10289 2.29646 2.94771 3.04348 3.29479 3.64579C3.54153 4.07356 3.95948 4.37575 4.40276 4.57567C4.98016 4.83328 5.58317 5.02928 6.20177 5.16046C7.92425 5.54069 9.70831 5.68999 11.468 5.75352C13.4184 5.83214 15.372 5.76842 17.313 5.56289C17.7931 5.51022 18.2722 5.44701 18.7505 5.37332C19.3138 5.28704 19.6754 4.5514 19.5093 4.03893C19.3107 3.42626 18.7769 3.18861 18.1732 3.28108C18.0843 3.29505 17.9958 3.30795 17.9069 3.32089L17.8427 3.33018C17.6382 3.35599 17.4337 3.3801 17.2292 3.4025C16.8068 3.44795 16.3834 3.48516 15.9589 3.51406C15.0082 3.58018 14.0548 3.61069 13.102 3.61222C12.1658 3.61222 11.229 3.58587 10.2949 3.52442C9.86863 3.4965 9.44346 3.46105 9.01931 3.41799C8.82635 3.39783 8.63395 3.37665 8.44151 3.35289L8.25841 3.32963L8.21859 3.32399L8.02874 3.29657C7.64079 3.23822 7.25284 3.17105 6.86906 3.08995C6.83034 3.08136 6.79567 3.05987 6.77085 3.02897C6.74604 2.99806 6.73249 2.95959 6.73249 2.91999C6.73249 2.88038 6.74604 2.84195 6.77085 2.81105C6.79567 2.78014 6.83034 2.75861 6.86906 2.75003H6.87628C7.20891 2.67924 7.54408 2.61881 7.88028 2.5661C7.99238 2.54857 8.1048 2.53132 8.21753 2.51446H8.22063C8.43118 2.5005 8.64274 2.46281 8.85223 2.43799C10.6749 2.24865 12.5084 2.1841 14.3399 2.24481C15.229 2.27061 16.1177 2.32281 17.0027 2.41269C17.193 2.43234 17.3824 2.45301 17.5717 2.47622C17.6441 2.48501 17.7171 2.49536 17.79 2.50414L17.9369 2.52532C18.3652 2.58901 18.7912 2.66634 19.215 2.75728C19.843 2.89363 20.6492 2.93807 20.9288 3.62516C21.0176 3.84316 21.058 4.08544 21.1071 4.3143L21.1699 4.60614C21.1715 4.6114 21.1727 4.61677 21.1734 4.62218C21.3215 5.31097 21.4695 5.99975 21.6175 6.68857C21.6285 6.73944 21.6289 6.79202 21.6183 6.843C21.6081 6.89399 21.5873 6.9423 21.5575 6.98489C21.5276 7.02751 21.4891 7.06351 21.4448 7.09065C21.4004 7.11779 21.3505 7.13548 21.2991 7.14265H21.2948L21.2045 7.15504L21.1149 7.16693C20.8314 7.20379 20.5475 7.23822 20.2635 7.27026C19.7038 7.33395 19.1433 7.38908 18.5819 7.43555C17.4663 7.52822 16.3486 7.58901 15.2285 7.61791C14.6578 7.63308 14.0873 7.64014 13.5169 7.63908C11.2466 7.63732 8.97835 7.50555 6.72318 7.24442C6.47903 7.21548 6.23491 7.1845 5.99075 7.15297C6.18006 7.17728 5.85317 7.13438 5.78696 7.12508C5.63178 7.1034 5.4766 7.08085 5.32143 7.0574C4.80052 6.9794 4.28276 6.88332 3.76292 6.79912C3.13442 6.69579 2.53338 6.74748 1.96492 7.0574C1.49829 7.31242 1.12062 7.70351 0.882279 8.17842C0.637102 8.68469 0.564186 9.23591 0.454516 9.77987C0.344846 10.3239 0.174156 10.9092 0.238827 11.4676C0.377947 12.6728 1.22162 13.6523 2.4351 13.8713C3.57668 14.0779 4.7245 14.2454 5.87539 14.3879C10.3964 14.9409 14.9638 15.0071 19.499 14.5853C19.8683 14.5508 20.2371 14.5133 20.6053 14.4727C20.7203 14.46 20.8369 14.4732 20.9461 14.5114C21.0553 14.5495 21.1546 14.6116 21.2367 14.693C21.3187 14.7744 21.382 14.8732 21.4208 14.982C21.4597 15.0908 21.4738 15.207 21.4621 15.3219L21.347 16.4367C21.1157 18.6894 20.8844 20.942 20.6532 23.1943C20.4117 25.5597 20.1687 27.9248 19.9242 30.2896C19.8552 30.9559 19.7863 31.6218 19.7173 32.2877C19.6511 32.943 19.6418 33.6194 19.5171 34.2673C19.3206 35.2857 18.63 35.9116 17.6224 36.1402C16.6992 36.35 15.7562 36.4602 14.8095 36.4688C13.76 36.4743 12.711 36.4281 11.6615 36.4336C10.5411 36.4398 9.16879 36.3367 8.30392 35.5037C7.54408 34.7724 7.43908 33.6269 7.33562 32.6367C7.19768 31.3257 7.06095 30.0147 6.92544 28.7037L6.16506 21.4152L5.67313 16.6992C5.66489 16.6212 5.6566 16.5442 5.64882 16.4657C5.58989 15.9031 5.19106 15.3524 4.56261 15.3808C4.02462 15.4046 3.41325 15.8612 3.47635 16.4657L3.84102 19.962L4.59516 27.1944C4.81002 29.2488 5.02434 31.3034 5.23814 33.3583C5.27953 33.752 5.31832 34.1469 5.36175 34.5402C5.59813 36.6916 7.24303 37.8508 9.27999 38.1771C10.4697 38.3685 11.6884 38.4077 12.8957 38.4273C14.4433 38.452 16.0065 38.5116 17.5288 38.2316C19.7845 37.8183 21.477 36.3139 21.7185 33.9802C21.7876 33.3069 21.8567 32.6328 21.9254 31.959C22.1547 29.73 22.3836 27.5009 22.6125 25.2716L23.3602 17.9876L23.7034 14.6493C23.7202 14.4838 23.7905 14.3281 23.9028 14.2054C24.0155 14.0827 24.1647 13.9994 24.3281 13.9679C24.9732 13.8424 25.5897 13.628 26.0487 13.1378C26.7791 12.3572 26.9244 11.3395 26.666 10.3135ZM2.40199 11.0337C2.41181 11.029 2.39371 11.1132 2.38597 11.1525C2.3844 11.0931 2.3875 11.0404 2.40199 11.0337ZM2.46458 11.5172C2.46977 11.5136 2.48528 11.5343 2.5013 11.559C2.47699 11.5363 2.46148 11.5193 2.46407 11.5172H2.46458ZM2.52615 11.5983C2.54838 11.636 2.56028 11.6598 2.52615 11.5983V11.5983ZM2.64976 11.6985H2.65286C2.65286 11.7021 2.65856 11.7058 2.66064 11.7094C2.65718 11.7054 2.65337 11.7017 2.64925 11.6985H2.64976ZM24.2982 11.5487C24.0666 11.7688 23.7171 11.8711 23.3723 11.9222C19.5031 12.4956 15.5776 12.7859 11.6661 12.6578C8.86672 12.5623 6.09677 12.2518 3.3253 11.8607C3.05373 11.8225 2.75943 11.7729 2.57268 11.573C2.22094 11.1959 2.39371 10.4365 2.48528 9.98085C2.56907 9.56344 2.72943 9.00704 3.2265 8.94763C4.0024 8.85673 4.90348 9.18371 5.67109 9.29995C6.59525 9.44081 7.52288 9.55359 8.45395 9.63834C12.4275 9.99995 16.4678 9.94363 20.4239 9.41465C21.1448 9.31787 21.8633 9.20544 22.5792 9.07732C23.2172 8.96312 23.924 8.74877 24.3096 9.40846C24.5739 9.85787 24.6088 10.4592 24.568 10.967C24.5554 11.1883 24.4588 11.3964 24.2975 11.5487H24.2982Z" fill="#1B1C1D"/>
</svg>
