<svg width="138" height="26" viewBox="0 0 138 26" fill="none" xmlns="http://www.w3.org/2000/svg">
<path fill-rule="evenodd" clip-rule="evenodd" d="M9.76598 12.2852C9.5402 12.7158 9.22961 13.0908 8.8342 13.4091C8.43879 13.7275 7.97781 13.9868 7.45047 14.1865C6.92352 14.3866 6.39303 14.5209 5.85979 14.5893C5.32617 14.658 4.80825 14.6521 4.30682 14.5705C3.80461 14.4895 3.37739 14.3241 3.02635 14.0741L3.42216 9.97143C3.78576 9.84668 4.2436 9.71856 4.79608 9.58739C5.34816 9.45641 5.91595 9.36252 6.49983 9.30645C7.08372 9.25013 7.63541 9.25676 8.15647 9.32523C8.67713 9.3939 9.08825 9.55931 9.38942 9.8217C9.55277 9.97143 9.69099 10.1338 9.80368 10.3087C9.91677 10.4836 9.98548 10.6647 10.011 10.852C10.0734 11.3765 9.99215 11.8543 9.76598 12.2852ZM4.02411 3.54586C4.28758 3.38354 4.60485 3.23974 4.97474 3.11472C5.34502 2.99021 5.72472 2.90249 6.11385 2.8526C6.50258 2.80292 6.88228 2.79625 7.25296 2.83382C7.62284 2.87135 7.94953 2.97429 8.23186 3.1428C8.51418 3.31155 8.72425 3.55515 8.86247 3.87339C9.00029 4.19209 9.03799 4.59492 8.97517 5.0819C8.9253 5.46907 8.77098 5.79704 8.51418 6.06539C8.25699 6.33417 7.94286 6.55876 7.57298 6.7399C7.2027 6.92123 6.81043 7.06476 6.39656 7.17053C5.98191 7.277 5.58336 7.35519 5.20091 7.40488C4.81807 7.45504 4.48548 7.48641 4.20316 7.49853C3.92084 7.51111 3.7355 7.51727 3.64754 7.51727L4.02411 3.54586ZM11.7992 9.63421C11.5985 9.19735 11.3288 8.81327 10.9899 8.48198C10.651 8.15115 10.249 7.91088 9.78483 7.76092C9.98548 7.59857 10.1834 7.34261 10.3781 6.99276C10.5725 6.64339 10.7386 6.26217 10.8768 5.85006C11.0146 5.4377 11.1093 5.02272 11.1591 4.60421C11.209 4.1859 11.1902 3.8268 11.103 3.52684C10.889 2.77774 10.5537 2.19068 10.0954 1.76598C9.63719 1.34151 9.10396 1.04798 8.49533 0.885428C7.88632 0.723584 7.21526 0.688879 6.48098 0.782526C5.74671 0.876134 4.99673 1.06033 4.23143 1.33508C4.23143 1.2728 4.23771 1.20723 4.25028 1.13853C4.26245 1.07009 4.26873 0.998056 4.26873 0.922958C4.26873 0.735703 4.17489 0.573585 3.98641 0.435977C3.79833 0.298604 3.58197 0.217585 3.33734 0.192369C3.09232 0.167663 2.85398 0.220409 2.62153 0.351624C2.38946 0.482801 2.22926 0.723585 2.14169 1.07268C2.04117 2.19688 1.94065 3.36476 1.84052 4.57594C1.74 5.78755 1.6332 7.01154 1.5205 8.24813C1.40742 9.48445 1.29433 10.7115 1.18164 11.9291C1.06855 13.1469 0.955467 14.3177 0.842773 15.4416C0.880469 15.7788 0.974312 16.0412 1.12509 16.2285C1.27548 16.416 1.45139 16.5284 1.65204 16.5658C1.85269 16.6033 2.06316 16.5686 2.28266 16.4626C2.50215 16.3568 2.69377 16.1722 2.85712 15.9101C3.35894 16.1848 3.92398 16.3628 4.55145 16.4441C5.17892 16.5251 5.81543 16.5251 6.46253 16.4441C7.10846 16.3628 7.74535 16.21 8.37283 15.9849C9.0003 15.7603 9.57162 15.4792 10.086 15.1421C10.6008 14.8049 11.0335 14.4206 11.3853 13.9899C11.7364 13.5588 11.9688 13.0937 12.0815 12.5943C12.1946 12.0822 12.226 11.5703 12.1757 11.0581C12.1255 10.5461 11.9998 10.0717 11.7992 9.63421Z" fill="#1B1C1D"/>
<path fill-rule="evenodd" clip-rule="evenodd" d="M30.1665 19.5253C30.0978 19.9375 30 20.3716 29.8747 20.8277C29.7491 21.283 29.6018 21.6987 29.4326 22.0736C29.263 22.4481 29.0749 22.7504 28.868 22.9818C28.6606 23.2128 28.4376 23.3096 28.1993 23.2724C28.0112 23.2469 27.8918 23.1285 27.8419 22.9163C27.7913 22.7038 27.7913 22.4414 27.8419 22.1296C27.8918 21.8171 27.9888 21.4641 28.1333 21.0708C28.2778 20.6775 28.4537 20.2869 28.6606 19.9002C28.868 19.5128 29.1032 19.1414 29.3666 18.7853C29.6301 18.4297 29.9062 18.1329 30.1948 17.8957C30.2576 17.9705 30.2859 18.1578 30.2796 18.4578C30.2729 18.7575 30.2356 19.1136 30.1665 19.5253ZM36.5488 11.395C36.3792 11.2077 36.1722 11.1017 35.9272 11.0765C35.6826 11.0516 35.4344 11.1889 35.1839 11.4887C35.0206 11.7883 34.8132 12.0757 34.5623 12.3504C34.3114 12.6254 34.0511 12.875 33.7813 13.0998C33.5112 13.3244 33.254 13.5183 33.0094 13.6804C32.7647 13.843 32.5731 13.9616 32.4353 14.0364C32.385 13.6369 32.3564 13.206 32.3505 12.7438C32.3438 12.2817 32.3536 11.8135 32.3787 11.3389C32.416 10.6644 32.4946 9.98395 32.6139 9.29685C32.7333 8.61003 32.9057 7.93552 33.1319 7.27336C33.1319 6.92399 33.0498 6.63976 32.8868 6.42109C32.7235 6.2027 32.526 6.06509 32.2939 6.00897C32.0615 5.95289 31.8235 5.98403 31.5785 6.10262C31.3339 6.22144 31.1238 6.43701 30.9479 6.74885C30.7975 7.16121 30.6247 7.6232 30.4304 8.13517C30.2356 8.64732 30.0161 9.16878 29.7715 9.69948C29.5265 10.2307 29.2536 10.7457 28.9524 11.2451C28.6512 11.7449 28.3218 12.1883 27.9641 12.5752C27.6063 12.9624 27.2172 13.2654 26.7971 13.4839C26.3761 13.7025 25.9218 13.7992 25.4322 13.7743C25.206 13.7118 25.0427 13.5433 24.9425 13.2683C24.842 12.9938 24.7823 12.6501 24.7639 12.238C24.745 11.8259 24.7639 11.3731 24.82 10.8797C24.8766 10.3866 24.952 9.89626 25.0462 9.40928C25.14 8.92207 25.2437 8.46003 25.3564 8.02297C25.4695 7.58591 25.5759 7.21728 25.6764 6.9176C25.8272 6.5556 25.8272 6.25234 25.6764 6.00897C25.526 5.76536 25.3191 5.60328 25.0556 5.52175C24.7921 5.44073 24.5157 5.44403 24.2271 5.53128C23.9385 5.61873 23.7312 5.81219 23.6059 6.11187C23.3923 6.62431 23.1976 7.1985 23.022 7.83544C22.8465 8.47242 22.7052 9.13144 22.5987 9.81191C22.4919 10.4928 22.4319 11.1673 22.4197 11.8354C22.4189 11.8789 22.4209 11.9202 22.4209 11.9635C22.1472 12.6896 21.8865 13.2383 21.6387 13.6056C21.3187 14.0804 20.9574 14.2865 20.5561 14.2237C20.3798 14.1489 20.2644 13.9741 20.2078 13.6992C20.1509 13.4247 20.1324 13.0874 20.1509 12.6874C20.1701 12.2881 20.2173 11.8354 20.2923 11.3294C20.368 10.8236 20.4615 10.2991 20.5746 9.7558C20.6877 9.21227 20.807 8.66634 20.9323 8.11662C21.0579 7.56713 21.1706 7.04878 21.2716 6.56156C21.259 6.1245 21.1302 5.79058 20.8852 5.55932C20.6409 5.32854 20.2985 5.23799 19.8595 5.28768C19.5584 5.41266 19.3353 5.57524 19.1912 5.77489C19.0467 5.9745 18.9305 6.23073 18.8429 6.54277C18.7923 6.70536 18.7173 7.02999 18.6168 7.51721C18.5163 8.00395 18.3879 8.56321 18.2308 9.19372C18.0741 9.82474 17.8888 10.4833 17.6756 11.1701C17.4623 11.857 17.2236 12.4788 16.9605 13.0342C16.6967 13.5899 16.4081 14.0364 16.0943 14.3737C15.7806 14.7107 15.4417 14.8483 15.0777 14.7858C14.8767 14.7483 14.7483 14.5422 14.6917 14.1676C14.6352 13.7928 14.6262 13.331 14.6635 12.7813C14.7012 12.2318 14.7766 11.6291 14.8892 10.9736C15.0023 10.3179 15.1182 9.69662 15.2375 9.10936C15.3569 8.52254 15.4669 8.00395 15.5674 7.55454C15.6675 7.10485 15.7366 6.80517 15.7743 6.65544C15.7743 6.29324 15.6922 6.00305 15.5297 5.78415C15.3663 5.56595 15.1688 5.42834 14.9364 5.37203C14.7039 5.31595 14.4656 5.34709 14.2213 5.46568C13.9763 5.5845 13.7662 5.80007 13.5903 6.11187C13.5275 6.44913 13.4458 6.83964 13.3457 7.28289C13.2452 7.72611 13.1482 8.18199 13.054 8.65042C12.9597 9.11885 12.8718 9.57779 12.7905 10.0274C12.7088 10.4771 12.6491 10.8705 12.6114 11.2077C12.5863 11.4699 12.558 11.7917 12.527 12.1724C12.4952 12.5536 12.4795 12.9562 12.4795 13.3807C12.4795 13.8057 12.5109 14.227 12.5741 14.6453C12.6366 15.0639 12.7496 15.448 12.9126 15.7973C13.0755 16.1472 13.3049 16.4343 13.6001 16.6591C13.8946 16.8839 14.2681 17.0087 14.72 17.0339C15.1841 17.0586 15.589 17.0246 15.9345 16.9307C16.2793 16.8371 16.593 16.6902 16.8757 16.4903C17.158 16.2909 17.4152 16.0535 17.6477 15.7785C17.8794 15.504 18.1087 15.2043 18.3345 14.8794C18.5481 15.3543 18.8241 15.7225 19.163 15.9848C19.5018 16.247 19.8595 16.4034 20.2361 16.453C20.6123 16.5027 20.9955 16.4502 21.3846 16.2938C21.7734 16.1379 22.1248 15.8724 22.4385 15.4976C22.6455 15.2678 22.8402 15.0066 23.0232 14.7178C23.101 14.853 23.1834 14.9835 23.2765 15.104C23.5839 15.504 24.0013 15.7785 24.5287 15.9285C25.0933 16.0785 25.645 16.1037 26.1849 16.0036C26.7244 15.9038 27.2392 15.7225 27.7285 15.4603C28.2181 15.1979 28.6728 14.8828 29.0937 14.5141C29.5139 14.1458 29.881 13.7619 30.1948 13.3619C30.1822 13.6493 30.1759 13.9212 30.1759 14.1769C30.1759 14.4331 30.1696 14.7107 30.1575 15.0106C29.5296 15.448 28.9367 15.9725 28.3783 16.5842C27.8196 17.196 27.3299 17.8486 26.9098 18.5418C26.4892 19.2347 26.1598 19.9375 25.9218 20.6492C25.6831 21.3614 25.5669 22.0265 25.5731 22.6449C25.5794 23.263 25.7267 23.803 26.0157 24.2649C26.3039 24.7273 26.7747 25.0579 27.4273 25.2579C28.1054 25.4704 28.7011 25.4763 29.2163 25.2767C29.7306 25.0767 30.1791 24.7457 30.5619 24.2838C30.9447 23.8218 31.2585 23.263 31.5035 22.6073C31.7481 21.9516 31.9425 21.2677 32.087 20.5559C32.2311 19.8441 32.3222 19.1441 32.3599 18.4578C32.3976 17.7707 32.3976 17.1584 32.3599 16.6216C33.4393 16.1721 34.324 15.6038 35.0143 14.9167C35.7046 14.2304 36.2755 13.5057 36.7275 12.7438C36.8653 12.5565 36.9124 12.3316 36.8688 12.0695C36.8244 11.8071 36.718 11.5823 36.5488 11.395Z" fill="#1B1C1D"/>
<path fill-rule="evenodd" clip-rule="evenodd" d="M60.2973 10.1964C60.335 9.90935 60.3915 9.60633 60.4665 9.28786C60.5419 8.96939 60.6361 8.66017 60.7492 8.36049C60.8619 8.0608 60.9938 7.80174 61.1446 7.58308C61.295 7.36465 61.4552 7.20853 61.6245 7.11465C61.7941 7.02123 61.9661 7.03049 62.1424 7.14269C62.3305 7.25535 62.4463 7.49253 62.4907 7.85449C62.5342 8.21716 62.4907 8.6041 62.3587 9.01621C62.2268 9.42857 61.9916 9.81547 61.6527 10.1777C61.3139 10.5401 60.8556 10.7771 60.2784 10.8895C60.2533 10.7151 60.2596 10.4838 60.2973 10.1964ZM66.8201 10.9644C66.6132 10.9023 66.4157 10.8959 66.2272 10.9458C66.0391 10.9957 65.9198 11.1269 65.8699 11.3394C65.769 11.7389 65.6088 12.1479 65.3893 12.5663C65.1698 12.9848 64.9 13.3812 64.5804 13.756C64.2604 14.1306 63.8991 14.4617 63.4978 14.7488C63.0958 15.0361 62.6756 15.2421 62.2362 15.3669C61.7968 15.5045 61.4328 15.52 61.1446 15.4137C60.8556 15.308 60.6267 15.1266 60.4575 14.8707C60.2878 14.6147 60.1653 14.3055 60.0903 13.9433C60.0149 13.5811 59.971 13.2065 59.9584 12.8191C60.6738 12.8693 61.3107 12.7414 61.8695 12.4351C62.4274 12.1294 62.9014 11.7232 63.2905 11.2175C63.6792 10.7117 63.9745 10.1435 64.1752 9.51269C64.3758 8.88218 64.4889 8.25449 64.514 7.6299C64.5266 7.04284 64.439 6.54661 64.2506 6.14068C64.0625 5.73496 63.808 5.41912 63.488 5.19453C63.1684 4.96971 62.8009 4.83849 62.387 4.8012C61.9731 4.76363 61.5522 4.81994 61.1254 4.9697C60.6106 5.14461 60.1748 5.42861 59.817 5.82222C59.4593 6.21555 59.1613 6.67163 58.9229 7.18974C58.6846 7.7081 58.4961 8.26684 58.3583 8.86625C58.2201 9.46586 58.1196 10.056 58.0571 10.6369C58.0006 11.1581 57.9704 11.6564 57.9597 12.1375C57.9327 12.1986 57.9067 12.2573 57.8781 12.3226C57.6833 12.7664 57.4571 13.2003 57.2003 13.6248C56.9432 14.0495 56.6573 14.4055 56.344 14.6926C56.0302 14.98 55.7039 15.0798 55.365 14.9924C55.164 14.9427 55.0545 14.7112 55.0356 14.2993C55.0168 13.887 55.0384 13.375 55.1012 12.763C55.164 12.1513 55.2363 11.4889 55.3179 10.7771C55.3992 10.0653 55.44 9.38484 55.44 8.73527C55.44 8.1732 55.3332 7.63323 55.12 7.11465C54.9064 6.59676 54.6147 6.16563 54.2448 5.82222C53.8745 5.47853 53.4445 5.25061 52.9553 5.13845C52.4656 5.02578 51.9387 5.10088 51.374 5.36304C50.809 5.62543 50.3602 5.99378 50.028 6.46841C49.695 6.94327 49.3907 7.44261 49.1147 7.96716C49.0142 7.56739 48.8669 7.19618 48.6722 6.85249C48.4778 6.50908 48.2394 6.20935 47.9571 5.95316C47.6744 5.69743 47.3571 5.49755 47.0065 5.35374C46.6551 5.21045 46.2844 5.13845 45.8953 5.13845C45.5191 5.13845 45.1708 5.21045 44.8508 5.35374C44.5308 5.49755 44.239 5.68151 43.9751 5.90633C43.7117 6.13139 43.4733 6.38406 43.2597 6.66519C43.0465 6.94614 42.858 7.22422 42.6951 7.49873C42.6695 7.17406 42.6417 6.89006 42.6106 6.64618C42.5788 6.40284 42.5223 6.19676 42.441 6.02825C42.3593 5.85951 42.2435 5.73167 42.0927 5.64418C41.9419 5.55696 41.7287 5.513 41.4527 5.513C41.3145 5.513 41.1763 5.54104 41.0384 5.59712C40.9002 5.65347 40.7777 5.73167 40.6713 5.83147C40.5645 5.93178 40.4832 6.0532 40.4267 6.19676C40.3701 6.34033 40.3548 6.50598 40.3795 6.69323C40.3921 6.83084 40.4267 6.99606 40.4832 7.18974C40.5394 7.38343 40.5928 7.63657 40.643 7.94837C40.6933 8.26069 40.7341 8.63857 40.7655 9.08182C40.7969 9.52531 40.806 10.0686 40.7938 10.7117C40.7809 11.3551 40.7341 12.1073 40.6525 12.9691C40.5708 13.8309 40.442 14.83 40.2665 15.9663C40.2413 16.2287 40.3419 16.4412 40.568 16.6035C40.7938 16.7656 41.051 16.8592 41.3396 16.8844C41.6282 16.9094 41.9015 16.8592 42.1587 16.7347C42.4159 16.6094 42.5635 16.391 42.6008 16.079C42.6385 15.4919 42.7108 14.8676 42.8176 14.2054C42.924 13.5438 43.0559 12.8881 43.213 12.2385C43.3697 11.5892 43.5483 10.971 43.7494 10.3837C43.95 9.79672 44.173 9.27861 44.4177 8.82892C44.6627 8.37927 44.9167 8.02037 45.1802 7.75182C45.4437 7.48327 45.7197 7.34896 46.0087 7.34896C46.3598 7.34896 46.6327 7.50798 46.8274 7.82645C47.0218 8.14516 47.1596 8.55441 47.2417 9.05351C47.323 9.55335 47.3607 10.1 47.3548 10.693C47.3481 11.2862 47.323 11.8575 47.2794 12.407C47.2354 12.9567 47.1851 13.4468 47.1286 13.8777C47.0721 14.3086 47.0312 14.6054 47.0065 14.7675C47.0065 15.0549 47.116 15.2826 47.3355 15.4513C47.555 15.6198 47.7997 15.7199 48.0698 15.751C48.34 15.7824 48.5936 15.7322 48.8324 15.601C49.0707 15.4698 49.2089 15.2486 49.2466 14.936C49.3719 14.0369 49.5446 13.1348 49.7641 12.2292C49.9836 11.3237 50.2349 10.5121 50.5173 9.79386C50.7996 9.07563 51.1133 8.48861 51.4585 8.03276C51.8036 7.57716 52.1708 7.34896 52.5599 7.34896C52.7605 7.34896 52.9145 7.48657 53.0209 7.76108C53.1277 8.03582 53.1811 8.41041 53.1811 8.88504C53.1811 9.23488 53.1528 9.59398 53.0966 9.96237C53.0397 10.3308 52.9741 10.7117 52.8987 11.1051C52.8234 11.4986 52.7574 11.9013 52.7008 12.3134C52.6447 12.7257 52.6164 13.1564 52.6164 13.6061C52.6164 13.9183 52.6478 14.2805 52.7107 14.6926C52.7731 15.1045 52.8921 15.4953 53.068 15.8634C53.2439 16.232 53.4854 16.5441 53.7932 16.8001C54.1007 17.056 54.4926 17.1841 54.9692 17.1841C55.6851 17.1841 56.3184 17.0311 56.8709 16.7252C57.423 16.4193 57.8969 16.0198 58.2923 15.5264C58.3128 15.5005 58.3316 15.4729 58.3516 15.4473C58.3819 15.5202 58.4086 15.5975 58.4427 15.6668C58.7125 16.2163 59.0796 16.6408 59.5441 16.9408C60.0083 17.2405 60.5545 17.4059 61.1823 17.4372C61.8094 17.4681 62.4934 17.3526 63.2344 17.0905C63.7861 16.8906 64.2663 16.6408 64.6742 16.3411C65.0818 16.0414 65.449 15.6761 65.7753 15.2452C66.102 14.8143 66.3996 14.3179 66.6697 13.756C66.9399 13.1937 67.2124 12.5508 67.4884 11.8261C67.5387 11.6268 67.4916 11.4487 67.3475 11.2924C67.203 11.1364 67.0275 11.0271 66.8201 10.9644Z" fill="#1B1C1D"/>
<path fill-rule="evenodd" clip-rule="evenodd" d="M77.0511 8.87481C76.9883 9.24343 76.9039 9.64959 76.7971 10.0926C76.6903 10.5361 76.5556 10.995 76.3923 11.4697C76.2293 11.9443 76.0283 12.3721 75.7899 12.7528C75.5516 13.134 75.2783 13.4366 74.9712 13.6614C74.6634 13.8863 74.3092 13.9799 73.9075 13.9423C73.7065 13.9176 73.5525 13.7803 73.4461 13.5302C73.3393 13.2807 73.2832 12.962 73.2765 12.5748C73.2702 12.1879 73.3048 11.7632 73.3802 11.3009C73.4555 10.8391 73.5714 10.3861 73.7288 9.94265C73.8855 9.49963 74.0767 9.09038 74.3025 8.71555C74.5287 8.341 74.789 8.05057 75.0839 7.84453C75.3788 7.63845 75.7023 7.54198 76.0534 7.5541C76.4048 7.56669 76.7814 7.74136 77.1831 8.07861C77.1576 8.2412 77.114 8.50665 77.0511 8.87481ZM83.7436 10.3079C83.5489 10.2081 83.3482 10.1865 83.1413 10.2426C82.9344 10.2986 82.7867 10.4893 82.6992 10.8139C82.6489 11.1638 82.5358 11.5757 82.3603 12.0503C82.1844 12.5249 81.9676 12.9748 81.7108 13.399C81.4533 13.8237 81.1584 14.1767 80.8258 14.4576C80.4932 14.7388 80.1386 14.8669 79.7625 14.8414C79.4483 14.8167 79.2284 14.6575 79.1036 14.364C78.9775 14.0705 78.912 13.7023 78.9057 13.2586C78.899 12.8156 78.9434 12.316 79.0372 11.7601C79.1314 11.2044 79.2445 10.6518 79.3761 10.1019C79.508 9.55261 79.6431 9.02477 79.7813 8.519C79.9191 8.01328 80.0318 7.58547 80.1202 7.23587C80.2203 6.92355 80.1889 6.65834 80.0259 6.43943C79.8626 6.22124 79.6588 6.06485 79.4142 5.97124C79.1692 5.87759 78.921 5.85261 78.6701 5.89633C78.4192 5.9401 78.2562 6.07438 78.1808 6.29896C77.4403 5.66202 76.728 5.31857 76.0444 5.26869C75.36 5.21877 74.7293 5.36873 74.1521 5.71834C73.5745 6.06794 73.0633 6.57371 72.618 7.23587C72.1723 7.89798 71.8115 8.61908 71.535 9.39959C71.259 10.1801 71.0866 10.9765 71.0175 11.7881C70.9484 12.6 71.0018 13.3401 71.1777 14.0082C71.3536 14.6763 71.6638 15.2229 72.1095 15.6471C72.5548 16.0718 73.1607 16.2843 73.9263 16.2843C74.2652 16.2843 74.5915 16.2156 74.9053 16.0783C75.2186 15.9407 75.5076 15.7783 75.7711 15.591C76.0345 15.4037 76.2666 15.207 76.468 15.0009C76.6683 14.7948 76.8254 14.6233 76.9384 14.4857C77.026 14.9353 77.1705 15.3165 77.3716 15.6286C77.5718 15.9407 77.8011 16.1971 78.0583 16.3965C78.3155 16.5961 78.5857 16.743 78.868 16.8369C79.1503 16.9305 79.4236 16.9774 79.6867 16.9774C80.2768 16.9774 80.8285 16.7775 81.3437 16.3777C81.8581 15.9785 82.3195 15.4879 82.7274 14.9073C83.135 14.3264 83.4711 13.7147 83.7342 13.0713C83.9981 12.4282 84.1736 11.8568 84.2616 11.357C84.3495 11.1697 84.3334 10.9732 84.2144 10.7671C84.0951 10.561 83.9384 10.4082 83.7436 10.3079Z" fill="#1B1C1D"/>
<path fill-rule="evenodd" clip-rule="evenodd" d="M117.631 20.6504C117.525 21.0747 117.358 21.4343 117.132 21.7276C116.906 22.021 116.624 22.1739 116.285 22.1868C116.072 22.199 115.908 22.0864 115.795 21.8496C115.683 21.6119 115.604 21.3061 115.56 20.9315C115.516 20.5566 115.497 20.1382 115.504 19.6762C115.51 19.2143 115.529 18.7582 115.56 18.3086C115.591 17.8592 115.629 17.4404 115.673 17.0535C115.717 16.6661 115.751 16.3669 115.777 16.1544C116.203 16.2043 116.558 16.3883 116.84 16.707C117.123 17.0255 117.339 17.4032 117.49 17.8404C117.641 18.2775 117.728 18.7492 117.754 19.2547C117.778 19.7606 117.738 20.2257 117.631 20.6504ZM110.816 20.6504C110.71 21.0747 110.543 21.4343 110.317 21.7276C110.092 22.021 109.809 22.1739 109.47 22.1868C109.257 22.199 109.094 22.0864 108.981 21.8496C108.868 21.6119 108.789 21.3061 108.746 20.9315C108.701 20.5566 108.682 20.1382 108.689 19.6762C108.695 19.2143 108.714 18.7582 108.746 18.3086C108.777 17.8592 108.814 17.4404 108.858 17.0535C108.902 16.6661 108.936 16.3669 108.962 16.1544C109.388 16.2043 109.743 16.3883 110.025 16.707C110.308 17.0255 110.524 17.4032 110.675 17.8404C110.826 18.2775 110.913 18.7492 110.939 19.2547C110.963 19.7606 110.922 20.2257 110.816 20.6504ZM103.823 10.0098C103.81 10.3092 103.782 10.5747 103.738 10.8057C103.694 11.0372 103.634 11.1836 103.559 11.2461C103.421 11.171 103.251 10.9778 103.05 10.6653C102.85 10.3532 102.693 10.0001 102.58 9.60668C102.467 9.21335 102.432 8.82644 102.476 8.44523C102.52 8.06448 102.718 7.76809 103.069 7.55539C103.207 7.48052 103.326 7.50856 103.427 7.63978C103.528 7.77095 103.609 7.96131 103.672 8.21111C103.734 8.46115 103.778 8.74825 103.804 9.07292C103.829 9.39778 103.835 9.70986 103.823 10.0098ZM102.156 13.7471C101.962 13.9529 101.745 14.1309 101.507 14.2809C101.268 14.4309 101.024 14.5433 100.773 14.6182C100.521 14.6933 100.296 14.7118 100.095 14.6742C99.5302 14.5621 99.0971 14.3182 98.796 13.9437C98.4948 13.5691 98.3032 13.1289 98.2219 12.6232C98.1402 12.1172 98.1492 11.577 98.2502 11.0025C98.3503 10.4281 98.5195 9.89429 98.7583 9.40088C98.9966 8.90747 99.2856 8.48276 99.6241 8.12699C99.9629 7.77095 100.333 7.54947 100.735 7.46174C100.584 8.09868 100.534 8.75774 100.584 9.43821C100.634 10.1189 100.798 10.7589 101.074 11.3583C101.249 11.721 101.46 12.0516 101.704 12.3513C101.949 12.6512 102.247 12.9072 102.599 13.1194C102.498 13.3319 102.351 13.541 102.156 13.7471ZM122.987 10.1971C123.025 9.90997 123.081 9.60668 123.157 9.28821C123.232 8.96998 123.326 8.6608 123.439 8.36107C123.552 8.06115 123.684 7.80209 123.834 7.58366C123.985 7.36527 124.145 7.20888 124.314 7.11523C124.484 7.02158 124.656 7.03088 124.832 7.14327C125.02 7.25594 125.136 7.49311 125.18 7.85507C125.224 8.21754 125.18 8.60445 125.048 9.0168C124.917 9.42892 124.681 9.81609 124.342 10.1781C124.004 10.5407 123.545 10.7777 122.968 10.8901C122.943 10.7154 122.949 10.4844 122.987 10.1971ZM130.574 10.1971C130.612 9.90997 130.668 9.60668 130.743 9.28821C130.819 8.96998 130.913 8.6608 131.026 8.36107C131.139 8.06115 131.27 7.80209 131.421 7.58366C131.572 7.36527 131.732 7.20888 131.901 7.11523C132.071 7.02158 132.243 7.03088 132.419 7.14327C132.607 7.25594 132.723 7.49311 132.767 7.85507C132.811 8.21754 132.767 8.60445 132.635 9.0168C132.504 9.42892 132.268 9.81609 131.929 10.1781C131.591 10.5407 131.132 10.7777 130.555 10.8901C130.53 10.7154 130.536 10.4844 130.574 10.1971ZM137.624 11.293C137.48 11.137 137.304 11.0277 137.097 10.965C136.89 10.9027 136.692 10.8965 136.504 10.9464C136.316 10.9963 136.196 11.1275 136.146 11.3398C136.046 11.7395 135.886 12.1486 135.666 12.5666C135.447 12.9854 135.177 13.3818 134.857 13.7564C134.537 14.1309 134.176 14.4622 133.775 14.7493C133.372 15.0367 132.952 15.2428 132.513 15.3673C132.074 15.5051 131.71 15.5206 131.421 15.4143C131.132 15.3083 130.903 15.1272 130.734 14.8713C130.565 14.6151 130.442 14.3061 130.367 13.9437C130.292 13.5817 130.247 13.2071 130.235 12.8197C130.951 12.8699 131.587 12.742 132.146 12.4357C132.704 12.1298 133.178 11.7236 133.568 11.2179C133.956 10.7123 134.251 10.1441 134.452 9.51331C134.653 8.88252 134.766 8.25507 134.791 7.63048C134.803 7.04347 134.715 6.54695 134.527 6.14103C134.339 5.73535 134.085 5.4197 133.765 5.19511C133.445 4.97005 133.078 4.83907 132.663 4.80154C132.249 4.76398 131.829 4.82056 131.402 4.97005C130.887 5.14519 130.451 5.42923 130.094 5.82256C129.736 6.21613 129.438 6.67221 129.2 7.19009C128.961 7.70868 128.773 8.26719 128.635 8.86684C128.496 9.46625 128.396 10.0566 128.334 10.6372C128.273 11.2007 128.24 11.74 128.232 12.2562C128.185 12.3591 128.134 12.4625 128.079 12.5666C127.86 12.9854 127.59 13.3818 127.27 13.7564C126.95 14.1309 126.589 14.4622 126.188 14.7493C125.786 15.0367 125.365 15.2428 124.926 15.3673C124.487 15.5051 124.123 15.5206 123.834 15.4143C123.545 15.3083 123.316 15.1272 123.147 14.8713C122.978 14.6151 122.855 14.3061 122.78 13.9437C122.705 13.5817 122.661 13.2071 122.648 12.8197C123.364 12.8699 124 12.742 124.559 12.4357C125.117 12.1298 125.591 11.7236 125.98 11.2179C126.369 10.7123 126.664 10.1441 126.865 9.51331C127.066 8.88252 127.179 8.25507 127.204 7.63048C127.216 7.04347 127.129 6.54695 126.941 6.14103C126.752 5.73535 126.498 5.4197 126.178 5.19511C125.858 4.97005 125.491 4.83907 125.077 4.80154C124.662 4.76398 124.242 4.82056 123.816 4.97005C123.3 5.14519 122.864 5.42923 122.507 5.82256C122.149 6.21613 121.851 6.67221 121.613 7.19009C121.374 7.70868 121.186 8.26719 121.048 8.86684C120.91 9.46625 120.809 10.0566 120.747 10.6372C120.711 10.9647 120.688 11.2822 120.67 11.5941C120.549 11.6968 120.43 11.8001 120.304 11.9016C119.872 12.2515 119.416 12.5666 118.939 12.8478C118.462 13.1289 117.966 13.3599 117.452 13.541C116.937 13.7221 116.41 13.8315 115.871 13.8688L117.038 1.4295C117.114 1.16711 117.076 0.936367 116.925 0.736485C116.775 0.536602 116.58 0.39923 116.342 0.324367C116.103 0.249269 115.849 0.255661 115.579 0.342916C115.309 0.430602 115.087 0.630484 114.911 0.942288C114.823 1.41715 114.732 2.06644 114.638 2.89068C114.544 3.71492 114.449 4.61425 114.356 5.58845C114.261 6.56264 114.167 7.56797 114.073 8.60444C113.979 9.64139 113.897 10.6092 113.828 11.5083C113.825 11.5482 113.823 11.5843 113.82 11.6238C113.71 11.7165 113.603 11.8099 113.489 11.9016C113.057 12.2515 112.601 12.5666 112.124 12.8478C111.647 13.1289 111.152 13.3599 110.637 13.541C110.123 13.7221 109.595 13.8315 109.056 13.8688L110.223 1.4295C110.299 1.16711 110.261 0.936367 110.11 0.736485C109.96 0.536602 109.765 0.39923 109.527 0.324367C109.288 0.249269 109.034 0.255661 108.764 0.342916C108.494 0.430602 108.272 0.630484 108.096 0.942288C108.008 1.41715 107.917 2.06644 107.823 2.89068C107.729 3.71492 107.635 4.61425 107.541 5.58845C107.446 6.56264 107.352 7.56797 107.258 8.60444C107.164 9.64139 107.082 10.6092 107.014 11.5083C107.012 11.5263 107.011 11.5427 107.009 11.5608C106.812 11.6518 106.597 11.7317 106.364 11.7987C106.125 11.8676 105.856 11.9082 105.554 11.9206C105.605 11.6955 105.645 11.4458 105.677 11.171C105.708 10.8965 105.733 10.6092 105.752 10.3092C105.771 10.0098 105.777 9.70986 105.771 9.41013C105.765 9.11021 105.749 8.8357 105.724 8.58566C105.661 8.04903 105.545 7.53994 105.376 7.05892C105.206 6.57833 104.977 6.17574 104.689 5.8506C104.4 5.52593 104.039 5.30731 103.606 5.19511C103.173 5.08268 102.668 5.12001 102.091 5.30731C101.237 5.19511 100.468 5.27331 99.7843 5.54162C99.1003 5.81045 98.507 6.20044 98.0051 6.71237C97.5033 7.2248 97.0922 7.82703 96.7722 8.52033C96.4522 9.21335 96.2386 9.92543 96.1321 10.6558C96.087 10.9654 96.065 11.2737 96.0583 11.5812C95.864 11.9772 95.6511 12.3232 95.4167 12.6137C95.0841 13.0258 94.739 13.363 94.3813 13.6252C94.0236 13.8875 93.669 14.0874 93.318 14.2248C92.9661 14.3624 92.6524 14.4561 92.3763 14.5057C92.05 14.5682 91.7363 14.5746 91.4351 14.5245C91.134 14.4748 90.8575 14.331 90.607 14.0936C90.406 13.9189 90.2521 13.6378 90.1456 13.2506C90.0388 12.8635 89.9764 12.4235 89.9576 11.9299C89.9387 11.4365 89.9576 10.9212 90.0137 10.3843C90.0703 9.84747 90.1672 9.33837 90.3055 8.85758C90.4437 8.37676 90.6188 7.9459 90.8328 7.56464C91.0456 7.18417 91.2969 6.91225 91.5859 6.74994C91.7485 6.77511 91.8494 6.87162 91.8871 7.04013C91.9248 7.20888 91.9338 7.40876 91.915 7.63978C91.8965 7.87099 91.8683 8.10821 91.8306 8.35158C91.7929 8.59519 91.774 8.79841 91.774 8.96049C91.8368 9.29774 91.959 9.56013 92.1411 9.74739C92.3229 9.93468 92.5271 10.0442 92.7529 10.0752C92.9787 10.1065 93.2013 10.0535 93.4216 9.91589C93.6407 9.77876 93.8194 9.56013 93.958 9.26017C93.9702 9.27276 93.989 9.27895 94.0141 9.27895L94.278 6.8999C94.353 6.57499 94.3027 6.2879 94.1272 6.03813C93.9513 5.78833 93.7192 5.64456 93.4306 5.60723C93.0666 5.08268 92.5739 4.80488 91.9527 4.7735C91.3315 4.74237 90.6946 4.94531 90.042 5.38241C89.6403 5.66998 89.2857 6.06617 88.9783 6.57193C88.6704 7.07793 88.4199 7.63978 88.2255 8.25794C88.0304 8.87609 87.8926 9.52899 87.8113 10.2159C87.7296 10.9027 87.7139 11.571 87.7638 12.2201C87.814 12.8699 87.9303 13.4819 88.1125 14.0561C88.2943 14.6308 88.5483 15.1115 88.875 15.4985C89.151 15.8357 89.4644 16.0826 89.8158 16.2388C90.1672 16.395 90.5344 16.4915 90.9172 16.529C91.3001 16.5663 91.6798 16.5506 92.0563 16.4822C92.4329 16.4137 92.7906 16.317 93.1295 16.1917C93.5685 16.0297 94.0208 15.8233 94.4849 15.5736C94.9491 15.324 95.3947 15.0241 95.8216 14.6742C96.0462 14.4903 96.2621 14.2897 96.471 14.0746C96.566 14.3094 96.6724 14.5366 96.8005 14.7493C97.1393 15.3112 97.5972 15.7673 98.1748 16.1169C98.7516 16.4665 99.4611 16.6348 100.302 16.6226C101.206 16.6101 102.04 16.3824 102.806 15.9389C103.571 15.4959 104.199 14.8428 104.689 13.9812C105.422 13.9812 106.143 13.861 106.852 13.6221C106.846 13.6977 106.84 13.7773 106.835 13.8502C106.785 14.5122 106.759 14.9616 106.759 15.199C106.747 15.6111 106.719 16.12 106.675 16.7255C106.631 17.3313 106.602 17.9683 106.59 18.6362C106.578 19.3045 106.602 19.979 106.665 20.6598C106.728 21.3402 106.86 21.9586 107.061 22.5147C107.261 23.07 107.546 23.5417 107.917 23.9292C108.287 24.3159 108.773 24.5472 109.376 24.6221C110.016 24.7092 110.568 24.597 111.033 24.2849C111.497 23.9723 111.874 23.5449 112.163 23.0017C112.451 22.4582 112.655 21.8308 112.774 21.119C112.893 20.4068 112.928 19.6919 112.878 18.9735C112.827 18.2554 112.695 17.5781 112.482 16.9413C112.269 16.3042 111.974 15.7796 111.597 15.3673C111.824 15.3052 112.093 15.1866 112.407 15.0115C112.72 14.8368 113.044 14.64 113.377 14.4213C113.458 14.3677 113.539 14.3111 113.62 14.2559C113.59 14.6985 113.574 15.0141 113.574 15.199C113.562 15.6111 113.534 16.12 113.489 16.7255C113.446 17.3313 113.417 17.9683 113.405 18.6362C113.392 19.3045 113.417 19.979 113.48 20.6598C113.543 21.3402 113.675 21.9586 113.875 22.5147C114.076 23.07 114.362 23.5417 114.732 23.9292C115.102 24.3159 115.588 24.5472 116.191 24.6221C116.831 24.7092 117.383 24.597 117.847 24.2849C118.312 23.9723 118.689 23.5449 118.977 23.0017C119.266 22.4582 119.47 21.8308 119.589 21.119C119.708 20.4068 119.742 19.6919 119.693 18.9735C119.642 18.2554 119.51 17.5781 119.298 16.9413C119.084 16.3042 118.789 15.7796 118.412 15.3673C118.638 15.3052 118.908 15.1866 119.222 15.0115C119.536 14.8368 119.859 14.64 120.192 14.4213C120.364 14.3078 120.536 14.1906 120.708 14.0701C120.772 14.6809 120.911 15.2166 121.132 15.6672C121.403 16.217 121.769 16.6414 122.234 16.9413C122.698 17.2408 123.244 17.4064 123.872 17.4376C124.5 17.4685 125.183 17.3532 125.924 17.0908C126.476 16.8912 126.956 16.6414 127.364 16.3417C127.772 16.0418 128.139 15.6765 128.465 15.2458C128.484 15.2209 128.502 15.1938 128.52 15.1686C128.578 15.3435 128.643 15.5115 128.719 15.6672C128.99 16.217 129.357 16.6414 129.821 16.9413C130.285 17.2408 130.831 17.4064 131.459 17.4376C132.086 17.4685 132.77 17.3532 133.511 17.0908C134.063 16.8912 134.543 16.6414 134.951 16.3417C135.359 16.0418 135.726 15.6765 136.052 15.2458C136.379 14.8147 136.676 14.3182 136.946 13.7564C137.216 13.1943 137.489 12.5514 137.766 11.8268C137.815 11.6271 137.768 11.4491 137.624 11.293Z" fill="#1B1C1D"/>
</svg>
