<svg width="27" height="42" viewBox="0 0 27 42" fill="none" xmlns="http://www.w3.org/2000/svg">
<path d="M27.0002 3.49273V28.7808L25.3152 27.8087L23.6303 26.836V3.49273L21.9452 4.46545L20.2603 5.43816L18.5746 6.41089L16.8897 7.3836L15.2047 8.35567L11.8347 10.301L10.1496 11.2738L8.46467 12.2465L6.77972 13.2192L5.09465 14.1919L3.40911 15.164L1.72404 14.1919L0.0390625 13.2192L1.72404 12.2465L3.40911 11.2738L5.09465 10.301L6.77972 9.32835L8.46467 8.35567L10.1496 7.3836H10.1503L11.8347 6.41089L13.5196 5.43816L15.2047 4.46545L16.8897 3.49273L18.5746 2.52002L20.2603 1.54731L21.9452 0.574585L23.6303 1.54731L27.0002 3.49273Z" fill="#E21C39"/>
<path d="M3.40911 17.1094V40.4526L1.72404 39.4799L0.0390625 38.5072V15.1639L1.72404 16.1366L3.40911 17.1094Z" fill="#E21C39"/>
<path d="M21.9453 6.41089V25.8632L20.2604 24.8905L18.5747 23.9178V12.2465L16.8897 13.2192L15.2048 14.1919L13.5197 15.164L11.8348 16.1367L10.1497 17.1095L8.46475 18.0822L6.7798 17.1095L5.09473 16.1367L6.7798 15.164L8.46475 14.1919L10.1497 13.2192L11.8348 12.2465L13.5197 11.2738L15.2048 10.3012L16.8897 9.32835L18.5747 8.35567L20.2604 7.38361L21.9453 6.41089Z" fill="#E21C39"/>
<path d="M25.3153 29.7534L23.6304 30.7261L21.9453 31.6988L20.2604 32.6716L18.5747 33.6443L16.8897 34.617L15.2048 35.5897L13.5197 36.5618L11.8348 37.5345L10.1497 38.5073L8.46475 39.48L6.7798 40.4526L5.09473 41.4253V18.0822L6.7798 19.0548L8.46475 20.0275V35.5897L10.1497 34.617L11.8348 33.6443L15.2048 31.6988L16.8897 30.7261L18.5747 29.7534L20.2604 28.7808L21.9453 27.8087L23.6304 28.7808L25.3153 29.7534Z" fill="#E21C39"/>
<path d="M20.2601 26.836L18.5744 27.8087L16.8895 28.7808L15.2044 29.7535L13.5194 30.7261L11.8345 31.6988L10.1494 32.6716V28.7808L11.8345 27.8087L13.5194 26.836L15.2044 25.8632L16.8895 24.8905L18.5744 25.8632L20.2601 26.836Z" fill="#E21C39"/>
</svg>
